<svg width="147" height="34" viewBox="0 0 147 34" fill="none" xmlns="http://www.w3.org/2000/svg">
<g clip-path="url(#clip0_8648_2180)">
<path d="M14.1951 7.53717H1.15214C0.771727 7.53717 0.5 7.8089 0.5 8.18931V29.5471C0.5 29.9275 0.771727 30.1992 1.15214 30.1992H14.1951C14.5755 30.1992 14.8472 29.9275 14.8472 29.5471V8.18931C14.8472 7.8089 14.5211 7.53717 14.1951 7.53717ZM13.4885 28.8949H1.80429V8.84146H13.4885V28.8949Z" fill="#2B363C"/>
<path d="M17.2383 10.3633H5.55401C5.17358 10.3633 4.90186 10.635 4.90186 11.0154V26.9387C4.90186 27.3191 5.17358 27.5908 5.55401 27.5908H17.2383C17.6187 27.5908 17.8905 27.3191 17.8905 26.9387V11.0154C17.8905 10.635 17.6187 10.3633 17.2383 10.3633ZM16.5862 26.2321H6.26049V11.6676H16.5862V26.2321Z" fill="#2B363C"/>
<path d="M20.0098 12.809H10.0102C9.62978 12.809 9.35803 13.0807 9.35803 13.4611V23.9498C9.35803 24.3302 9.62978 24.6019 10.0102 24.6019H20.0098C20.3901 24.6019 20.6619 24.3302 20.6619 23.9498V13.4611C20.6619 13.0807 20.3901 12.809 20.0098 12.809ZM19.3576 23.2433H10.6623V14.1132H19.3576V23.2433Z" fill="#2B363C"/>
<path d="M28.4336 27.3193C28.4336 27.8084 28.0531 28.2431 27.5097 28.2431C27.0206 28.2431 26.5858 27.8627 26.5858 27.3193V10.8526C26.5858 10.3635 26.9663 9.92871 27.5097 9.92871H36.1506C36.5854 9.92871 36.9658 10.3091 36.9658 10.7439C36.9658 11.1787 36.5854 11.5591 36.1506 11.5591H28.4336V18.2436H34.3572C34.792 18.2436 35.1724 18.624 35.1724 19.0588C35.1724 19.4935 34.792 19.874 34.3572 19.874H28.4336V27.3193Z" fill="#2B363C"/>
<path d="M49.0304 21.8844C49.0304 26.2864 46.8566 28.3515 43.3785 28.3515C39.9004 28.3515 37.7266 26.2864 37.7266 21.8844C37.7266 17.4824 39.9004 15.4173 43.3785 15.4173C46.8566 15.4173 49.0304 17.4824 49.0304 21.8844ZM47.237 21.8844C47.237 18.515 45.824 16.9933 43.3242 16.9933C40.8242 16.9933 39.4112 18.515 39.4112 21.8844C39.4112 25.3082 40.8242 26.7755 43.3242 26.7755C45.824 26.7755 47.237 25.3082 47.237 21.8844Z" fill="#2B363C"/>
<path d="M54.5194 27.4822L50.0087 16.8305C50.0087 16.7761 49.9544 16.6674 49.9544 16.4501C49.9544 15.961 50.3348 15.5806 50.8239 15.5806C51.313 15.5806 51.5305 15.8522 51.6391 16.124L55.4433 25.4171L59.2475 16.124C59.3562 15.8522 59.5735 15.5806 60.0626 15.5806C60.5517 15.5806 60.9322 15.961 60.9322 16.4501C60.9322 16.6131 60.8778 16.7218 60.8778 16.8305L55.6063 29.4386C54.5194 32.0473 53.1608 33.4059 50.6066 33.4059C50.1718 33.4059 49.7914 33.0798 49.7914 32.5907C49.7914 32.1016 50.1175 31.7755 50.6066 31.7755C52.8347 31.7755 53.4325 30.1995 54.5194 27.4822Z" fill="#2B363C"/>
<path d="M64.7903 17.6457C65.3337 16.3958 66.6924 15.4719 68.5401 15.4719C68.9747 15.4719 69.3556 15.8523 69.3556 16.2871C69.3556 16.7219 68.9747 17.1023 68.5401 17.1023C66.0949 17.1023 64.7903 18.8414 64.7903 21.2869V27.3192C64.7903 27.8083 64.4099 28.1888 63.9208 28.1888C63.4317 28.1888 63.0513 27.8083 63.0513 27.3192V16.4501C63.0513 15.961 63.4317 15.5806 63.9208 15.5806C64.4099 15.5806 64.7903 15.961 64.7903 16.4501V17.6457Z" fill="#2B363C"/>
<path d="M75.2251 20.4175C72.6712 20.4175 70.5513 18.298 70.5513 15.7437C70.5513 13.1895 72.6712 11.0701 75.2251 11.0701C77.7796 11.0701 79.8988 13.1895 79.8988 15.7437C79.8988 18.298 77.7796 20.4175 75.2251 20.4175ZM75.2251 11.6679C72.9971 11.6679 71.1495 13.4613 71.1495 15.7437C71.1495 18.0263 72.9428 19.8197 75.2251 19.8197C77.453 19.8197 79.3013 18.0263 79.3013 15.7437C79.3013 13.4613 77.453 11.6679 75.2251 11.6679Z" fill="#2B363C"/>
<path d="M74.247 18.4065C74.247 18.5695 74.1384 18.6782 73.9747 18.6782C73.8118 18.6782 73.7031 18.5695 73.7031 18.4065V13.1893C73.7031 13.0263 73.8118 12.9176 73.9747 12.9176H75.6594C76.5836 12.9176 77.2898 13.6241 77.2898 14.5479C77.2898 15.4175 76.6922 16.124 75.7687 16.1784L77.3441 18.2434C77.3991 18.2978 77.3991 18.3521 77.3991 18.4065C77.3991 18.5695 77.2898 18.6782 77.1268 18.6782C77.0182 18.6782 76.9638 18.6239 76.8552 18.5152L75.1162 16.124H74.247V18.4065ZM74.247 15.6349H75.6594C76.2576 15.6349 76.6922 15.1458 76.6922 14.5479C76.6922 13.8958 76.2576 13.4611 75.6594 13.4611H74.247V15.6349Z" fill="#2B363C"/>
</g>
<path d="M86.372 8.62453H90.86C93.388 8.62453 95.068 9.04853 95.9 9.89653C96.732 10.7445 97.148 11.7685 97.148 12.9685C97.148 13.7685 96.972 14.5285 96.62 15.2485C96.268 15.9525 95.708 16.4805 94.94 16.8325C96.076 17.1205 96.908 17.6245 97.436 18.3445C97.98 19.0645 98.252 19.9125 98.252 20.8885C98.252 21.9125 98.092 22.8085 97.772 23.5765C97.452 24.3445 96.788 24.9845 95.78 25.4965C94.772 26.0085 93.316 26.2645 91.412 26.2645H86.372V8.62453ZM91.292 16.1125C92.428 16.1125 93.236 15.8405 93.716 15.2965C94.196 14.7365 94.436 14.0325 94.436 13.1845C94.436 11.6645 93.348 10.9045 91.172 10.9045H89.012V16.1125H91.292ZM91.772 24.0085C93.228 24.0085 94.204 23.7205 94.7 23.1445C95.212 22.5525 95.468 21.8085 95.468 20.9125C95.468 20.0645 95.18 19.4085 94.604 18.9445C94.028 18.4805 93.156 18.2485 91.988 18.2485H89.012V24.0085H91.772ZM106.363 26.5045C105.227 26.5045 104.219 26.2485 103.339 25.7365C102.459 25.2245 101.779 24.5285 101.299 23.6485C100.819 22.7685 100.579 21.7925 100.579 20.7205C100.579 19.6645 100.811 18.6965 101.275 17.8165C101.755 16.9365 102.435 16.2405 103.315 15.7285C104.195 15.2165 105.211 14.9605 106.363 14.9605C107.515 14.9605 108.523 15.2165 109.387 15.7285C110.267 16.2405 110.939 16.9365 111.403 17.8165C111.883 18.6965 112.123 19.6645 112.123 20.7205C112.123 21.7925 111.883 22.7685 111.403 23.6485C110.923 24.5285 110.243 25.2245 109.363 25.7365C108.499 26.2485 107.499 26.5045 106.363 26.5045ZM106.435 24.3925C107.363 24.3925 108.091 24.0485 108.619 23.3605C109.163 22.6725 109.435 21.8085 109.435 20.7685C109.435 19.7285 109.147 18.8565 108.571 18.1525C107.995 17.4325 107.235 17.0725 106.291 17.0725C105.379 17.0725 104.643 17.4245 104.083 18.1285C103.539 18.8325 103.267 19.7125 103.267 20.7685C103.267 21.7925 103.563 22.6565 104.155 23.3605C104.747 24.0485 105.507 24.3925 106.435 24.3925ZM120.028 26.5045C118.892 26.5045 117.884 26.2485 117.004 25.7365C116.124 25.2245 115.444 24.5285 114.964 23.6485C114.484 22.7685 114.244 21.7925 114.244 20.7205C114.244 19.6645 114.476 18.6965 114.94 17.8165C115.42 16.9365 116.1 16.2405 116.98 15.7285C117.86 15.2165 118.876 14.9605 120.028 14.9605C121.18 14.9605 122.188 15.2165 123.052 15.7285C123.932 16.2405 124.604 16.9365 125.068 17.8165C125.548 18.6965 125.788 19.6645 125.788 20.7205C125.788 21.7925 125.548 22.7685 125.068 23.6485C124.588 24.5285 123.908 25.2245 123.028 25.7365C122.164 26.2485 121.164 26.5045 120.028 26.5045ZM120.1 24.3925C121.028 24.3925 121.756 24.0485 122.284 23.3605C122.828 22.6725 123.1 21.8085 123.1 20.7685C123.1 19.7285 122.812 18.8565 122.236 18.1525C121.66 17.4325 120.9 17.0725 119.956 17.0725C119.044 17.0725 118.308 17.4245 117.748 18.1285C117.204 18.8325 116.932 19.7125 116.932 20.7685C116.932 21.7925 117.228 22.6565 117.82 23.3605C118.412 24.0485 119.172 24.3925 120.1 24.3925ZM132.348 26.5045C131.58 26.5045 130.78 26.4085 129.948 26.2165C129.132 26.0085 128.548 25.7685 128.196 25.4965L129.06 23.4565C130.02 24.1285 131.116 24.4645 132.348 24.4645C133.58 24.4645 134.196 24.1045 134.196 23.3845C134.196 23.0645 134.068 22.8165 133.812 22.6405C133.556 22.4645 133.1 22.2565 132.444 22.0165L131.532 21.6805C130.572 21.2965 129.812 20.8405 129.252 20.3125C128.692 19.7685 128.412 19.0565 128.412 18.1765C128.412 17.1685 128.804 16.3845 129.588 15.8245C130.388 15.2485 131.452 14.9605 132.78 14.9605C133.436 14.9605 134.076 15.0325 134.7 15.1765C135.34 15.3205 135.828 15.5045 136.164 15.7285L135.228 17.7925C135.02 17.5845 134.684 17.4085 134.22 17.2645C133.772 17.1045 133.268 17.0245 132.708 17.0245C131.572 17.0245 131.004 17.3685 131.004 18.0565C131.004 18.4405 131.156 18.7365 131.46 18.9445C131.764 19.1365 132.26 19.3525 132.948 19.5925C133.012 19.6085 133.26 19.6965 133.692 19.8565C134.716 20.2565 135.476 20.7125 135.972 21.2245C136.468 21.7365 136.716 22.3925 136.716 23.1925C136.716 24.2805 136.3 25.1045 135.468 25.6645C134.652 26.2245 133.612 26.5045 132.348 26.5045ZM140.367 17.3605H138.423V15.2485H140.367V10.7605L142.983 10.1845V15.2485H145.527V17.3605H142.983V26.2645H140.367V17.3605Z" fill="#E9BEB3"/>
<defs>
<clipPath id="clip0_8648_2180">
<rect width="79.5455" height="25.8684" fill="white" transform="translate(0.5 7.53717)"/>
</clipPath>
</defs>
</svg>
