<svg width="370" height="221" viewBox="0 0 370 221" fill="none" xmlns="http://www.w3.org/2000/svg">
<g clip-path="url(#clip0_7659_62455)">
<path d="M193.285 41.2086H151.072V78.9733H193.285V41.2086Z" fill="#FAFAFA"/>
<path d="M193.278 78.9733C193.278 78.9733 193.272 78.7295 193.265 78.2748C193.265 77.8135 193.258 77.1348 193.252 76.2518C193.245 74.4792 193.239 71.8895 193.225 68.5881C193.212 61.992 193.199 52.5624 193.179 41.2151L193.278 41.314C181.12 41.3206 166.617 41.3272 151.072 41.3338H151.066L151.178 41.2217C151.171 54.961 151.171 67.8897 151.164 78.9865L151.066 78.8876C163.658 78.9074 174.195 78.9271 181.595 78.9403C185.298 78.9535 188.211 78.9601 190.207 78.9667C191.202 78.9733 191.967 78.9733 192.487 78.9799C192.744 78.9799 192.936 78.9865 193.074 78.9865C193.212 78.9667 193.278 78.9733 193.278 78.9733C193.278 78.9733 193.212 78.9799 193.087 78.9799C192.955 78.9799 192.758 78.9799 192.507 78.9865C191.987 78.9865 191.235 78.993 190.247 78.9996C188.257 79.0062 185.351 79.0128 181.661 79.026C174.248 79.0392 163.685 79.0523 151.066 79.0787H150.967V78.9799C150.96 67.8831 150.96 54.9544 150.953 41.2151V41.1031H151.066H151.072C166.617 41.1097 181.12 41.1163 193.278 41.1229H193.377V41.2217C193.357 52.5953 193.337 62.0447 193.331 68.654C193.318 71.9488 193.311 74.5319 193.305 76.2979C193.298 77.1743 193.298 77.8465 193.291 78.3011C193.291 78.7426 193.278 78.9733 193.278 78.9733Z" fill="#E0E0E0"/>
<path d="M167.256 47.9167C167.256 47.976 165.035 48.0287 162.294 48.0287C159.553 48.0287 157.332 47.976 157.332 47.9167C157.332 47.8574 159.553 47.8047 162.294 47.8047C165.035 47.8047 167.256 47.8574 167.256 47.9167Z" fill="#E0E0E0"/>
<path d="M185.14 50.7568C185.14 50.8161 179.038 50.8688 171.506 50.8688C163.974 50.8688 157.872 50.8161 157.872 50.7568C157.872 50.6975 163.974 50.6448 171.506 50.6448C179.038 50.6448 185.14 50.6909 185.14 50.7568Z" fill="#E0E0E0"/>
<path d="M159.184 55.5606H157.405V57.3398H159.184V55.5606Z" fill="#E0E0E0"/>
<path d="M163.559 55.5606H161.78V57.3398H163.559V55.5606Z" fill="#E0E0E0"/>
<path d="M168.02 55.4749H166.241V57.2541H168.02V55.4749Z" fill="#E0E0E0"/>
<path d="M172.317 55.5606H170.537V57.3398H172.317V55.5606Z" fill="#E0E0E0"/>
<path d="M176.692 55.5606H174.913V57.3398H176.692V55.5606Z" fill="#E0E0E0"/>
<path d="M181.068 55.5606H179.289V57.3398H181.068V55.5606Z" fill="#E0E0E0"/>
<path d="M185.45 55.5606H183.671V57.3398H185.45V55.5606Z" fill="#EBEBEB"/>
<path d="M159.184 59.3364H157.405V61.1156H159.184V59.3364Z" fill="#EBEBEB"/>
<path d="M163.559 59.3364H161.78V61.1156H163.559V59.3364Z" fill="#E0E0E0"/>
<path d="M167.935 59.3364H166.155V61.1156H167.935V59.3364Z" fill="#EBEBEB"/>
<path d="M172.317 59.3364H170.537V61.1156H172.317V59.3364Z" fill="#E0E0E0"/>
<path d="M176.692 59.3364H174.913V61.1156H176.692V59.3364Z" fill="#E0E0E0"/>
<path d="M181.153 59.2573H179.374V61.0365H181.153V59.2573Z" fill="#E0E0E0"/>
<path d="M185.45 59.3364H183.671V61.1156H185.45V59.3364Z" fill="#E0E0E0"/>
<path d="M159.184 63.1188H157.405V64.898H159.184V63.1188Z" fill="#E0E0E0"/>
<path d="M163.638 63.0397H161.859V64.8189H163.638V63.0397Z" fill="#E0E0E0"/>
<path d="M167.935 63.1188H166.155V64.898H167.935V63.1188Z" fill="#E0E0E0"/>
<path d="M172.317 63.1188H170.537V64.898H172.317V63.1188Z" fill="#EBEBEB"/>
<path d="M176.692 63.1188H174.913V64.898H176.692V63.1188Z" fill="#E0E0E0"/>
<path d="M181.068 63.1188H179.289V64.898H181.068V63.1188Z" fill="#E0E0E0"/>
<path d="M185.45 63.1188H183.671V64.898H185.45V63.1188Z" fill="#E0E0E0"/>
<path d="M159.184 66.9012H157.405V68.6804H159.184V66.9012Z" fill="#E0E0E0"/>
<path d="M163.559 66.9012H161.78V68.6804H163.559V66.9012Z" fill="#E0E0E0"/>
<path d="M167.935 66.9012H166.155V68.6804H167.935V66.9012Z" fill="#E0E0E0"/>
<path d="M172.396 66.8221H170.617V68.6013H172.396V66.8221Z" fill="#E0E0E0"/>
<path d="M176.692 66.9012H174.913V68.6804H176.692V66.9012Z" fill="#E0E0E0"/>
<path d="M181.068 66.9012H179.289V68.6804H181.068V66.9012Z" fill="#EBEBEB"/>
<path d="M185.45 66.9012H183.671V68.6804H185.45V66.9012Z" fill="#E0E0E0"/>
<path d="M159.184 70.6836H157.405V72.4628H159.184V70.6836Z" fill="#E0E0E0"/>
<path d="M163.559 70.6836H161.78V72.4628H163.559V70.6836Z" fill="#EBEBEB"/>
<path d="M167.935 70.6836H166.155V72.4628H167.935V70.6836Z" fill="#E0E0E0"/>
<path d="M172.317 70.6836H170.537V72.4628H172.317V70.6836Z" fill="#E0E0E0"/>
<path d="M176.692 70.6836H174.913V72.4628H176.692V70.6836Z" fill="#E0E0E0"/>
<path d="M181.153 70.5979H179.374V72.3771H181.153V70.5979Z" fill="#E0E0E0"/>
<path d="M185.45 70.6836H183.671V72.4628H185.45V70.6836Z" fill="#E0E0E0"/>
<path d="M243.55 105.727C246.456 102.274 248.123 101.318 250.225 98.9792C251.998 97.0023 253.803 94.9793 254.844 92.5346C255.886 90.0899 256.037 87.1114 254.574 84.8907C254.574 84.8907 249.915 83.9418 246.456 83.7507C242.996 83.5662 241.389 83.5925 241.389 83.5925L239.471 89.3979L242.937 90.8081L235.834 97.2329L230.226 103.757L233.013 111.829L236.782 112.178L243.55 105.727Z" fill="#F9CCB5"/>
<path d="M248.512 85.4508C248.532 85.4706 248.176 85.833 247.589 86.4063C246.963 87.0257 246.179 87.7901 245.316 88.6401C244.426 89.51 243.603 90.2875 242.996 90.8345C242.383 91.3814 241.988 91.6977 241.975 91.6779C241.955 91.6582 242.311 91.2957 242.897 90.7224C243.523 90.103 244.308 89.3386 245.171 88.482C246.06 87.6122 246.884 86.8346 247.49 86.2877C248.097 85.7473 248.492 85.431 248.512 85.4508Z" fill="#F3A484"/>
<path d="M253.645 86.9862C253.619 87.0125 253.454 86.828 253.125 86.6303C252.802 86.4392 252.281 86.2481 251.708 86.3008C251.134 86.3536 250.653 86.6237 250.37 86.8741C250.08 87.1245 249.948 87.3354 249.915 87.3156C249.896 87.309 249.981 87.0586 250.265 86.7621C250.541 86.4656 251.049 86.1427 251.688 86.0834C252.327 86.0307 252.881 86.2613 253.21 86.5051C253.533 86.7423 253.665 86.973 253.645 86.9862Z" fill="#F3A484"/>
<path d="M241.019 86.314C242.252 85.9582 242.983 84.4097 242.462 83.2301C242.219 82.6766 241.777 82.2483 241.435 81.7541C241.237 81.4707 241.079 81.1676 240.947 80.8513L240.374 79.0919C239.985 77.6224 239.669 76.1332 238.522 75.2041C237.487 74.3606 236.044 74.2354 234.852 73.6357C233.982 73.2008 233.25 72.5221 232.394 72.0542C231.537 71.5864 230.437 71.3623 229.606 71.8697C229.119 72.1729 228.796 72.6868 228.302 72.9834C227.293 73.5962 225.844 73.1415 224.915 73.873C224.163 74.4726 224.091 75.5863 223.55 76.377C222.957 77.2402 222.602 78.0442 221.666 78.512C220.73 78.9733 220.19 79.876 220.177 80.9238C220.163 81.8397 220.045 82.2615 220.018 83.1774C219.999 83.8495 219.649 84.5217 219.386 85.1345C219.122 85.7473 218.615 88.1393 219.162 88.5281L225.402 91.3419C227.372 93.2792 229.415 95.2626 231.972 96.3104L232.466 96.9759C231.88 97.0484 238.706 96.3631 239.846 92.2578C240.005 91.6845 240.176 91.1244 240.558 90.6697C240.94 90.2151 241.382 89.7933 241.639 89.2596C242.113 88.2843 241.843 87.0125 241.019 86.314Z" fill="#1A2E35"/>
<path d="M234.43 93.2331C235.715 91.7241 236.993 90.1953 238.001 88.4886C239.003 86.7819 239.728 84.8643 239.794 82.8809C239.807 82.5778 239.695 80.4955 239.412 80.4098C239.207 80.3505 239.043 82.189 238.871 82.3208C237.244 83.5662 236.176 85.431 235.55 87.3815C234.931 89.3255 234.621 91.1903 234.43 93.2331Z" fill="#1A2E35"/>
<path d="M222.094 105.971C224.961 107.078 230.74 102.195 230.74 102.195L237.487 86.314C239.524 81.7804 238.588 76.8119 233.995 74.9009L233.56 74.7494C229.191 73.2206 224.374 75.3029 222.496 79.5334C220.75 83.4739 218.872 87.8494 218.141 90.0305C216.618 94.551 220.882 96.831 220.882 96.831C220.895 96.8375 220.486 97.8655 219.966 99.1637C218.806 102.083 220.915 105.602 222.094 105.971Z" fill="#F9CCB5"/>
<path d="M220.882 96.831C220.882 96.831 223.663 97.9907 227.353 97.1473C227.353 97.1473 224.776 99.9215 220.427 97.9446L220.882 96.831Z" fill="#F3A484"/>
<path d="M221.962 83.5267C222.015 83.6387 222.628 83.4476 223.32 83.6914C224.012 83.922 224.394 84.4558 224.499 84.4031C224.552 84.3767 224.519 84.1988 224.354 83.9616C224.19 83.7243 223.873 83.441 223.445 83.2894C223.01 83.1379 222.595 83.1708 222.331 83.2631C222.061 83.3487 221.936 83.4739 221.962 83.5267Z" fill="#1A2E35"/>
<path d="M228.756 85.6089C228.809 85.721 229.422 85.5299 230.114 85.7737C230.806 86.0043 231.188 86.5381 231.293 86.4854C231.346 86.459 231.313 86.2811 231.148 86.0439C230.984 85.8066 230.667 85.5233 230.239 85.3717C229.804 85.2268 229.389 85.2531 229.125 85.3454C228.855 85.431 228.73 85.5562 228.756 85.6089Z" fill="#1A2E35"/>
<path d="M225.152 88.8378C225.172 88.7983 224.763 88.5743 224.097 88.2448C223.926 88.1657 223.775 88.0735 223.788 87.9417C223.788 87.7967 223.933 87.6319 224.091 87.4606C224.407 87.0916 224.737 86.7028 225.086 86.3009C226.483 84.6403 227.557 83.2499 227.491 83.1906C227.425 83.1379 226.239 84.436 224.842 86.0966C224.499 86.5051 224.177 86.9005 223.867 87.2761C223.728 87.454 223.537 87.6385 223.531 87.9351C223.531 88.0866 223.63 88.225 223.728 88.2975C223.827 88.37 223.926 88.4095 224.012 88.4425C224.697 88.7192 225.132 88.8774 225.152 88.8378Z" fill="#1A2E35"/>
<path d="M227.017 90.0305C226.905 89.9844 226.641 90.7356 225.811 91.0453C224.98 91.355 224.209 90.9926 224.17 91.0915C224.144 91.1376 224.295 91.3023 224.631 91.4275C224.961 91.5527 225.481 91.6186 225.989 91.4275C226.496 91.2364 226.819 90.8608 226.951 90.5643C227.089 90.2546 227.069 90.0437 227.017 90.0305Z" fill="#1A2E35"/>
<path d="M230.509 81.5959C230.509 81.8068 231.234 81.9583 232.011 82.3405C232.796 82.7095 233.369 83.1708 233.534 83.0456C233.613 82.9797 233.56 82.7623 233.356 82.4921C233.158 82.2153 232.802 81.899 232.328 81.675C231.86 81.4509 231.385 81.3719 231.049 81.3916C230.713 81.3982 230.516 81.4971 230.509 81.5959Z" fill="#1A2E35"/>
<path d="M223.9 79.54C223.966 79.7377 224.499 79.7443 225.079 79.9353C225.659 80.1067 226.101 80.4098 226.272 80.2846C226.351 80.2187 226.325 80.0408 226.166 79.8167C226.008 79.5927 225.705 79.3489 225.303 79.2237C224.908 79.0985 224.513 79.1182 224.256 79.2105C223.999 79.3028 223.873 79.4411 223.9 79.54Z" fill="#1A2E35"/>
<path d="M235.952 89.5166C236.038 89.51 239.366 89.6813 238.193 92.7257C237.02 95.77 234.206 93.9645 234.232 93.8723C234.259 93.7866 235.952 89.5166 235.952 89.5166Z" fill="#F9CCB5"/>
<path d="M235.609 93.0815C235.629 93.0749 235.649 93.1408 235.721 93.2133C235.794 93.2858 235.932 93.3714 236.117 93.3714C236.486 93.378 236.954 92.9695 237.178 92.4291C237.29 92.1524 237.336 91.869 237.323 91.612C237.316 91.355 237.23 91.1442 237.079 91.0519C236.934 90.9531 236.782 91.0058 236.71 91.0783C236.637 91.1508 236.631 91.2167 236.611 91.2167C236.598 91.2233 236.565 91.1376 236.637 91.0256C236.67 90.9728 236.736 90.9135 236.828 90.8806C236.927 90.8476 237.046 90.8608 237.151 90.9135C237.382 91.019 237.507 91.3155 237.52 91.5989C237.547 91.8888 237.507 92.2117 237.375 92.5214C237.118 93.1276 236.585 93.5823 236.097 93.5362C235.86 93.5098 235.708 93.378 235.642 93.266C235.583 93.154 235.596 93.0815 235.609 93.0815Z" fill="#F3A484"/>
<path d="M226.457 75.2831C226.074 74.8153 228.176 73.8137 229.6 73.7412C231.748 73.6357 234.74 74.2288 236.229 75.3754C238.028 76.7526 239.306 78.4263 239.596 80.6668C239.879 82.9138 239.412 85.207 238.522 87.2893C238.252 87.9219 237.916 88.5677 237.362 88.9762C236.67 89.477 235.695 89.5824 235.359 90.5182C235.24 90.8608 235.003 91.1639 234.674 91.3221C233.883 91.6911 233.428 90.8674 233.336 90.1887C233.138 88.739 233.626 87.2893 234.107 85.9055C234.45 84.9236 234.799 83.9154 235.445 83.0983C235.794 82.6502 236.222 82.268 236.545 81.8002C236.868 81.3323 237.085 80.7459 236.927 80.1989C236.901 80.1133 236.848 79.9881 236.782 79.8497C236.222 78.7558 235.109 78.0573 233.883 78.0112C231.932 77.9387 228.657 77.6883 228.13 76.8053C227.366 75.5401 227.32 74.8878 227.32 74.8878L226.457 75.2831Z" fill="#1A2E35"/>
<path d="M236.235 74.9009C234.792 73.6819 232.881 72.957 230.997 73.1481C229.995 73.247 228.98 73.6423 228.367 74.4397C227.761 75.237 227.702 76.4956 228.427 77.1875L228.473 77.2468C229.593 78.1957 230.502 78.3539 231.972 78.4198C233.204 78.4725 234.436 78.1891 235.675 78.2484C236.987 78.3143 238.278 78.7822 239.326 79.5729C238.687 77.8003 237.678 76.12 236.235 74.9009Z" fill="#1A2E35"/>
<path d="M240.604 81.4378C240.624 81.4509 240.433 81.7738 240.018 82.2022C239.609 82.6371 238.957 83.1642 238.133 83.5662C237.309 83.9682 236.492 84.1593 235.899 84.212C235.306 84.2713 234.937 84.2251 234.937 84.1988C234.924 84.1263 236.433 84.1658 238.041 83.3619C239.662 82.5975 240.558 81.3851 240.604 81.4378Z" fill="#455A64"/>
<path d="M241.632 82.4328C241.645 82.4394 241.606 82.5646 241.5 82.782C241.402 82.9995 241.23 83.3026 240.986 83.6519C240.499 84.3503 239.649 85.2268 238.463 85.8198C237.283 86.4129 236.064 86.571 235.214 86.5381C234.786 86.5249 234.443 86.4722 234.206 86.4261C233.975 86.3733 233.85 86.3338 233.85 86.3206C233.857 86.2811 234.371 86.3997 235.214 86.3865C236.051 86.3799 237.217 86.202 238.364 85.6287C239.51 85.0554 240.354 84.2251 240.861 83.5662C241.382 82.8941 241.599 82.413 241.632 82.4328Z" fill="#455A64"/>
<path d="M201.476 116.079L186.827 100.778L183.677 105.74L187.559 113.166C187.559 113.166 191.796 120.099 193.97 122.537C196.151 124.982 196.309 124.448 196.309 124.448L201.476 116.079Z" fill="#F9CCB5"/>
<path d="M181.417 96.3565C181.371 96.3236 178.801 95.948 177.78 95.7964C177.516 95.7569 177.246 95.8162 177.022 95.9677L175.486 96.9891L174.221 99.6645L174.597 99.9149L174.215 102.333C174.215 102.333 174.827 102.999 175.44 102.241C176.053 101.483 176.56 100.429 176.56 100.429L178.228 100.402L178.155 100.561L176.448 100.996L175.882 102.452L176.396 103.954L177.542 105.009L178.037 104.989L178.972 105.549C178.972 105.549 179.921 104.719 179.117 103.915C179.117 103.915 179.888 104.679 180.317 104.376L183.789 105.957L186.524 103.322L187.268 101.22C187.268 101.22 182.913 96.9496 182.649 96.7453C182.386 96.5344 181.417 96.3565 181.417 96.3565Z" fill="#F9CCB5"/>
<path d="M179.13 103.855C179.097 103.849 179.144 103.645 179.097 103.328C179.058 103.019 178.893 102.584 178.517 102.287C178.498 102.274 178.478 102.254 178.458 102.241L178.392 102.195L178.419 102.122C178.557 101.681 178.531 101.246 178.465 100.949C178.399 100.653 178.307 100.475 178.333 100.462C178.353 100.449 178.491 100.6 178.603 100.91C178.715 101.213 178.774 101.694 178.623 102.188L178.583 102.07C178.603 102.089 178.63 102.103 178.656 102.122C179.097 102.465 179.249 102.979 179.256 103.315C179.262 103.671 179.157 103.869 179.13 103.855Z" fill="#F3A484"/>
<path d="M177.898 104.976C177.878 104.949 178.096 104.817 178.195 104.468C178.307 104.126 178.175 103.605 177.826 103.157C177.733 103.032 177.634 102.907 177.542 102.788L177.503 102.742L177.522 102.689C177.674 102.281 177.522 101.879 177.338 101.681C177.153 101.47 176.982 101.411 176.989 101.384C176.989 101.365 177.193 101.378 177.43 101.589C177.667 101.78 177.891 102.261 177.714 102.768L177.694 102.669C177.793 102.781 177.891 102.907 177.99 103.045C178.168 103.289 178.307 103.552 178.366 103.816C178.425 104.079 178.405 104.336 178.326 104.528C178.181 104.91 177.898 105.002 177.898 104.976Z" fill="#F3A484"/>
<path d="M178.399 102.215C178.432 102.267 178.28 102.419 178.063 102.557C177.845 102.696 177.641 102.768 177.608 102.715C177.575 102.663 177.727 102.511 177.944 102.373C178.162 102.234 178.366 102.162 178.399 102.215Z" fill="#F3A484"/>
<path d="M178.946 104.099C178.887 104.112 178.794 103.803 178.55 103.513C178.313 103.216 178.03 103.065 178.056 103.005C178.069 102.946 178.438 103.025 178.722 103.374C178.999 103.724 179.005 104.099 178.946 104.099Z" fill="#F3A484"/>
<path d="M180.013 104.106C179.954 104.079 180.29 103.308 180.415 102.3C180.547 101.292 180.409 100.462 180.475 100.449C180.527 100.429 180.771 101.272 180.633 102.327C180.501 103.381 180.059 104.139 180.013 104.106Z" fill="#F3A484"/>
<path d="M176.481 98.1752C176.508 98.1884 176.475 98.3334 176.396 98.5706C176.31 98.8012 176.172 99.1241 175.908 99.4206C175.645 99.7172 175.302 99.8819 175.038 99.9083C174.775 99.9412 174.623 99.8621 174.63 99.8424C174.636 99.8094 174.788 99.8292 175.005 99.7633C175.223 99.704 175.506 99.5458 175.743 99.2823C175.981 99.0187 176.132 98.7221 176.251 98.5179C176.369 98.2938 176.448 98.162 176.481 98.1752Z" fill="#F3A484"/>
<path d="M178.3 100.099C178.261 100.053 178.353 99.9215 178.445 99.7699C178.537 99.6183 178.616 99.4865 178.676 99.4931C178.735 99.4997 178.748 99.6908 178.63 99.8819C178.511 100.073 178.333 100.145 178.3 100.099Z" fill="#F3A484"/>
<path d="M167.592 95.7964L167.638 102.063C167.651 104.172 176.119 104.099 176.013 102.004C176.007 101.879 175.967 95.7371 175.967 95.7371L167.592 95.7964Z" fill="#D1D1D1"/>
<path d="M175.763 96.8376C176.264 96.7585 176.771 96.7651 177.272 96.8507C177.634 96.9166 178.01 97.0352 178.228 97.3384C178.392 97.569 178.432 97.8721 178.458 98.1555C178.511 98.7024 178.524 99.2823 178.293 99.7765C178.076 100.244 177.661 100.594 177.2 100.785C176.732 100.982 176.218 101.029 175.717 101.002C175.717 100.686 175.724 100.363 175.724 100.047C176.02 100.053 176.323 100.053 176.613 99.9939C176.903 99.9346 177.193 99.8028 177.391 99.5788C177.714 99.2098 177.753 98.6694 177.714 98.1752C177.7 97.9841 177.674 97.7733 177.555 97.6217C177.391 97.4042 177.094 97.3515 176.831 97.3515C176.475 97.3515 176.125 97.424 175.796 97.5624" fill="#D1D1D1"/>
<path d="M172.857 83.0193C172.857 83.0193 172.811 83.072 172.679 83.0983C172.547 83.1181 172.343 83.0522 172.185 82.8611C172.106 82.7689 172.04 82.6371 172.014 82.4855C171.987 82.3339 172.033 82.1428 172.165 82.0111C172.416 81.7343 172.91 81.6816 173.299 81.9056C173.707 82.1429 173.885 82.6898 173.806 83.1972C173.74 83.7243 173.417 84.1988 173.061 84.6271C172.712 85.0554 172.304 85.4837 172.106 86.0307C171.908 86.571 172 87.2234 172.422 87.6781C172.831 88.1459 173.391 88.4556 173.826 88.9037C174.043 89.1278 174.221 89.4177 174.267 89.7274C174.333 90.0371 174.254 90.36 174.122 90.617C173.852 91.1442 173.391 91.4802 172.982 91.757C172.574 92.0338 172.198 92.2908 171.941 92.6136C171.414 93.2528 171.282 93.9513 171.262 94.406C171.249 94.8739 171.328 95.1243 171.309 95.1309C171.302 95.1309 171.282 95.0716 171.249 94.9529C171.223 94.8343 171.183 94.6498 171.183 94.4126C171.17 93.9447 171.282 93.2133 171.823 92.5214C172.086 92.1721 172.482 91.8954 172.883 91.6186C173.285 91.3353 173.707 91.0124 173.944 90.5379C174.063 90.3007 174.122 90.0371 174.07 89.7736C174.023 89.51 173.878 89.2661 173.674 89.0553C173.272 88.6336 172.706 88.3238 172.257 87.823C171.79 87.3222 171.678 86.5579 171.908 85.9648C172.132 85.3586 172.561 84.9236 172.91 84.5019C173.266 84.0868 173.562 83.6453 173.628 83.1774C173.707 82.7161 173.549 82.2417 173.22 82.0374C172.89 81.8331 172.462 81.8727 172.251 82.0967C172.02 82.3142 172.113 82.6437 172.244 82.8084C172.376 82.9929 172.554 83.0588 172.673 83.0522C172.798 83.0456 172.857 83.0061 172.857 83.0193Z" fill="#9D9D9D"/>
<path d="M176.376 97.3911L179.677 97.2329L183.433 98.3004L188.118 102.3C188.118 102.3 184.54 104.956 183.381 103.796C182.221 102.636 180.87 100.066 180.87 100.066L179.539 99.5063C179.545 99.5063 175.163 99.4997 176.376 97.3911Z" fill="#F9CCB5"/>
<path d="M185.957 100.455C185.951 100.462 185.885 100.416 185.766 100.323C185.628 100.211 185.456 100.08 185.252 99.9083C184.784 99.5195 184.158 98.9989 183.387 98.3597L183.414 98.3729C182.346 98.0764 181.068 97.7205 179.651 97.3318L179.684 97.3383C178.656 97.3911 177.542 97.4438 176.383 97.5031L176.468 97.4504C176.462 97.4635 176.448 97.4833 176.442 97.5031C176.244 97.8457 176.191 98.2543 176.429 98.5376C176.659 98.821 177.028 98.9791 177.384 99.0978C178.109 99.3218 178.854 99.3943 179.539 99.4141H179.559L179.572 99.4207C180.04 99.6183 180.481 99.8094 180.903 99.9939L180.929 100.007L180.942 100.033C181.575 101.233 182.175 102.188 182.629 102.827C182.853 103.15 183.045 103.388 183.176 103.552C183.315 103.71 183.381 103.796 183.374 103.803C183.367 103.809 183.288 103.737 183.137 103.585C182.992 103.434 182.788 103.203 182.55 102.887C182.069 102.261 181.45 101.318 180.791 100.113L180.837 100.152C180.415 99.9742 179.967 99.7897 179.499 99.5986L179.539 99.6052C178.834 99.592 178.083 99.5261 177.318 99.2954C176.949 99.1702 176.547 99.0121 176.257 98.6628C176.119 98.4915 176.04 98.2543 176.053 98.0237C176.066 97.793 176.139 97.5822 176.251 97.3911C176.257 97.3713 176.271 97.3515 176.277 97.3383L176.303 97.2856H176.363C177.523 97.2329 178.643 97.1802 179.671 97.1341H179.69L179.704 97.1407C181.114 97.5492 182.392 97.9248 183.453 98.2279L183.473 98.2345L183.486 98.2477C184.237 98.9067 184.85 99.447 185.305 99.849C185.502 100.027 185.661 100.172 185.792 100.29C185.911 100.389 185.964 100.449 185.957 100.455Z" fill="#F3A484"/>
<path d="M175.934 102.267C175.941 102.281 175.842 102.346 175.651 102.458C175.559 102.518 175.44 102.577 175.295 102.636C175.157 102.702 174.992 102.775 174.808 102.834C174.076 103.111 173.002 103.335 171.809 103.322C170.61 103.308 169.549 103.065 168.811 102.801C168.442 102.669 168.152 102.544 167.961 102.439C167.77 102.34 167.664 102.274 167.671 102.261C167.684 102.228 168.119 102.432 168.857 102.656C169.589 102.874 170.636 103.091 171.809 103.104C172.982 103.117 174.03 102.92 174.761 102.689C175.493 102.465 175.915 102.234 175.934 102.267Z" fill="#9D9D9D"/>
<path d="M175.994 102.215C175.934 102.215 175.882 100.765 175.875 98.9792C175.869 97.1934 175.908 95.7437 175.967 95.7437C176.027 95.7437 176.079 97.1934 176.086 98.9792C176.093 100.765 176.053 102.215 175.994 102.215Z" fill="#9D9D9D"/>
<path d="M171.842 95.3483C171.836 95.3549 171.809 95.3154 171.77 95.2429C171.73 95.1704 171.691 95.0584 171.658 94.9002C171.598 94.5905 171.645 94.1161 171.908 93.6153C172.165 93.1079 172.666 92.64 173.219 92.1787C173.773 91.7175 174.399 91.2035 174.689 90.4457C174.834 90.0767 174.86 89.6747 174.735 89.3255C174.61 88.9762 174.366 88.6863 174.116 88.4359C173.608 87.9482 173.061 87.5199 172.824 86.9928C172.574 86.459 172.699 85.9516 172.877 85.6946C172.969 85.5628 173.068 85.4837 173.14 85.4442C173.213 85.4047 173.259 85.3915 173.259 85.3981C173.272 85.4179 173.101 85.4772 172.949 85.7407C172.804 85.9911 172.719 86.459 172.962 86.9269C173.193 87.4079 173.72 87.7967 174.254 88.2975C174.518 88.5545 174.788 88.8576 174.933 89.253C175.078 89.6483 175.051 90.1162 174.893 90.5182C174.577 91.3484 173.905 91.8822 173.351 92.3303C172.785 92.7784 172.304 93.2133 172.047 93.6811C171.783 94.149 171.71 94.5905 171.75 94.887C171.776 95.1902 171.862 95.3417 171.842 95.3483Z" fill="#9D9D9D"/>
<path d="M117.413 99.6183L109.354 93.523C109.354 93.523 112.839 83.2828 111.462 82.0111L99.087 97.2132L111.251 107.223L117.413 99.6183Z" fill="#FF735D"/>
<path d="M117.413 99.6183L109.354 93.523C109.354 93.523 112.839 83.2828 111.462 82.0111L99.087 97.2132L111.251 107.223L117.413 99.6183Z" fill="#191919"/>
<g opacity="0.6">
<g opacity="0.6">
<g opacity="0.6">
<g opacity="0.6">
<g opacity="0.6">
<g opacity="0.6">
<g opacity="0.6">
<g opacity="0.6">
<g opacity="0.6">
<g opacity="0.6">
<g opacity="0.6">
<g opacity="0.6">
<g opacity="0.6">
<path opacity="0.6" d="M106.184 98.7617C105.861 98.9923 105.367 98.9264 105.123 98.6167C104.879 98.307 104.945 97.7996 105.261 97.569C105.578 97.3318 106.177 97.3977 106.382 97.7337C106.586 98.0698 106.48 98.6563 106.118 98.8078" fill="white"/>
</g>
</g>
</g>
</g>
</g>
</g>
</g>
</g>
</g>
</g>
</g>
</g>
</g>
<g opacity="0.6">
<g opacity="0.6">
<g opacity="0.6">
<g opacity="0.6">
<g opacity="0.6">
<g opacity="0.6">
<g opacity="0.6">
<g opacity="0.6">
<g opacity="0.6">
<g opacity="0.6">
<g opacity="0.6">
<g opacity="0.6">
<path opacity="0.6" d="M99.087 97.2197L100.352 98.1818L111.746 83.2499C111.746 83.2499 112.003 82.3339 111.462 82.0242L99.087 97.2197Z" fill="white"/>
</g>
</g>
</g>
</g>
</g>
</g>
</g>
</g>
</g>
</g>
</g>
</g>
<path d="M109.63 93.3451C109.551 93.2858 109.215 93.6284 108.682 93.7998C108.148 93.9843 107.673 93.9118 107.647 94.004C107.607 94.0831 108.141 94.3335 108.787 94.1161C109.439 93.9052 109.716 93.3846 109.63 93.3451Z" fill="#CFCFCF"/>
<path d="M110.27 91.2101C110.21 91.1376 109.821 91.355 109.307 91.3485C108.787 91.3616 108.398 91.1508 108.339 91.2233C108.273 91.2826 108.662 91.6911 109.307 91.6779C109.953 91.6845 110.342 91.2694 110.27 91.2101Z" fill="#CFCFCF"/>
<path d="M109.103 88.7522C109.031 88.8049 109.321 89.2134 109.881 89.3518C110.441 89.4968 110.889 89.2793 110.849 89.1937C110.823 89.1014 110.421 89.1475 109.96 89.0289C109.498 88.9169 109.169 88.6863 109.103 88.7522Z" fill="#CFCFCF"/>
<path d="M111.317 94.9332C111.225 94.9068 111.047 95.3351 110.678 95.7305C110.316 96.1325 109.907 96.3433 109.94 96.4356C109.96 96.5213 110.494 96.429 110.922 95.9545C111.357 95.4867 111.403 94.9464 111.317 94.9332Z" fill="#CFCFCF"/>
<path d="M121.373 93.7141L114.124 86.6765C114.124 86.6765 118.843 76.9437 117.63 75.5138L103.482 89.0816L114.329 100.508L121.373 93.7141Z" fill="#292929"/>
<g opacity="0.6">
<g opacity="0.6">
<g opacity="0.6">
<g opacity="0.6">
<g opacity="0.6">
<g opacity="0.6">
<g opacity="0.6">
<g opacity="0.6">
<g opacity="0.6">
<g opacity="0.6">
<g opacity="0.6">
<g opacity="0.6">
<g opacity="0.6">
<path opacity="0.6" d="M110.335 91.4802C109.993 91.6648 109.505 91.5396 109.301 91.2035C109.097 90.8674 109.222 90.3732 109.564 90.1755C109.907 89.9844 110.494 90.1162 110.658 90.472C110.823 90.8279 110.645 91.4012 110.263 91.5066" fill="white"/>
</g>
</g>
</g>
</g>
</g>
</g>
</g>
</g>
</g>
</g>
</g>
</g>
</g>
<g opacity="0.6">
<g opacity="0.6">
<g opacity="0.6">
<g opacity="0.6">
<g opacity="0.6">
<g opacity="0.6">
<g opacity="0.6">
<g opacity="0.6">
<g opacity="0.6">
<g opacity="0.6">
<g opacity="0.6">
<g opacity="0.6">
<path opacity="0.6" d="M103.482 89.0816L104.622 90.1887L117.762 76.7658C117.762 76.7658 118.131 75.8894 117.63 75.5138L103.482 89.0816Z" fill="white"/>
</g>
</g>
</g>
</g>
</g>
</g>
</g>
</g>
</g>
</g>
</g>
</g>
<path d="M114.421 86.5249C114.355 86.459 113.98 86.7555 113.426 86.861C112.873 86.9796 112.411 86.8478 112.378 86.9335C112.326 87.0059 112.826 87.3222 113.492 87.1839C114.158 87.0587 114.5 86.5776 114.421 86.5249Z" fill="#CFCFCF"/>
<path d="M115.317 84.4887C115.271 84.4097 114.856 84.5744 114.342 84.5085C113.828 84.4558 113.466 84.1988 113.4 84.2647C113.327 84.3174 113.663 84.7655 114.309 84.838C114.948 84.9171 115.376 84.5612 115.317 84.4887Z" fill="#CFCFCF"/>
<path d="M114.461 81.9056C114.381 81.9518 114.619 82.3867 115.159 82.5975C115.699 82.8084 116.167 82.6437 116.141 82.558C116.128 82.4657 115.719 82.4592 115.278 82.2812C114.83 82.1231 114.533 81.8463 114.461 81.9056Z" fill="#CFCFCF"/>
<path d="M115.897 88.3173C115.805 88.2843 115.581 88.6797 115.166 89.0289C114.757 89.3848 114.329 89.5429 114.349 89.6418C114.355 89.7274 114.895 89.7011 115.383 89.2859C115.871 88.8642 115.983 88.337 115.897 88.3173Z" fill="#CFCFCF"/>
<path d="M107.001 106.616C107.001 106.616 122.783 121.272 133.84 125.522C144.898 129.772 153.741 135.215 153.741 135.215L172.284 145.31L196.105 134.543L191.407 126.108L152.72 117.015L113.446 97.1077C113.439 97.1143 107.173 103.559 107.001 106.616Z" fill="#E0B6AD"/>
<path d="M118.21 90.1426C118.21 90.1426 140.054 106.86 145.273 108.508C145.715 108.646 146.156 108.784 146.585 108.962L152.205 111.302L161.516 115.315L186.735 127.736L195.749 134.029L200.382 142.773L200.77 148.032C200.77 148.032 179.974 150.562 176.916 148.691C173.852 146.819 147.619 127.229 146.262 125.7C144.904 124.171 120.16 113.792 110.296 96.8112L118.21 90.1426Z" fill="#E7BCB1"/>
<path d="M178.017 148.21C178.017 148.21 177.951 148.17 177.832 148.091C177.707 148.005 177.529 147.88 177.298 147.729C176.824 147.399 176.132 146.925 175.249 146.312C173.47 145.066 170.9 143.281 167.737 141.067C164.567 138.846 160.798 136.204 156.607 133.271C154.512 131.802 152.317 130.26 150.037 128.658C148.897 127.861 147.738 127.044 146.565 126.22C145.398 125.383 144.193 124.566 142.941 123.789C140.437 122.234 137.926 120.81 135.587 119.301C133.241 117.799 131.027 116.277 128.931 114.807C126.842 113.325 124.859 111.934 123.034 110.564C121.215 109.193 119.581 107.836 118.17 106.504C115.337 103.855 113.386 101.384 112.134 99.6183C111.818 99.1834 111.548 98.7815 111.317 98.4322C111.08 98.0896 110.896 97.793 110.744 97.5492C110.599 97.312 110.48 97.1275 110.401 96.9957C110.322 96.8705 110.289 96.8046 110.289 96.8046C110.289 96.8046 110.335 96.8639 110.421 96.9825C110.507 97.1077 110.625 97.2922 110.784 97.5229C110.942 97.7601 111.133 98.0566 111.377 98.3927C111.614 98.7353 111.884 99.1307 112.207 99.5656C113.472 101.312 115.442 103.763 118.276 106.392C119.693 107.71 121.32 109.055 123.139 110.419C124.964 111.776 126.954 113.166 129.043 114.643C131.139 116.112 133.353 117.628 135.692 119.123C138.031 120.632 140.542 122.049 143.046 123.611C144.298 124.388 145.517 125.206 146.677 126.049C147.85 126.879 149.01 127.69 150.15 128.494C152.423 130.095 154.617 131.644 156.706 133.113C160.884 136.059 164.647 138.714 167.81 140.948C170.959 143.182 173.509 144.987 175.282 146.246C176.158 146.872 176.837 147.36 177.305 147.696C177.529 147.86 177.707 147.986 177.826 148.078C177.957 148.164 178.017 148.21 178.017 148.21Z" fill="#455A64"/>
<path d="M219.88 99.1768C219.88 99.1768 212.302 103.269 210.892 104.976C209.574 106.564 194.919 121.232 194.919 121.232C194.919 121.232 185.437 124.052 185.806 124.843C186.478 126.286 189.14 128.883 190.563 130.207C191.189 130.793 191.762 131.433 192.263 132.131C193.463 133.785 195.808 137.027 197.746 139.729C200.474 143.531 200.784 148.038 200.784 148.038L207.472 144.361C210.885 142.984 212.75 139.248 216.5 137.317L227.761 125.186L231.194 118.175L232.341 100.916L230.713 101.035L224.414 101.872C224.394 101.859 218.938 101.279 219.88 99.1768Z" fill="#393939"/>
<path d="M225.943 103.717L231.129 101.424C231.129 101.424 233.31 99.302 235.273 97.8853C235.273 97.8853 228.809 105.938 234.489 108.62C240.163 111.302 244.743 104.224 244.743 104.224C244.743 104.224 243.603 105.977 242.937 107.354C242.271 108.732 238.904 113.107 238.904 113.107C238.904 113.107 238.812 115.275 236.875 117.489C234.937 119.703 232.763 123.367 231.036 124.309C229.31 125.252 225.442 126.972 225.442 126.972C225.442 126.972 224.17 120.909 224.737 114.267C225.297 107.631 225.943 103.717 225.943 103.717Z" fill="#393939"/>
<path d="M233.988 110.208C233.982 110.221 233.824 110.109 233.553 109.885C233.283 109.661 232.901 109.331 232.486 108.85C232.077 108.376 231.669 107.704 231.517 106.867C231.372 106.03 231.465 105.101 231.675 104.172C232.11 102.294 233 100.765 233.679 99.7238C234.021 99.2032 234.324 98.7946 234.542 98.5245C234.759 98.2477 234.885 98.1027 234.898 98.1159C234.911 98.1225 234.805 98.2872 234.608 98.5772C234.417 98.8671 234.133 99.2823 233.804 99.8094C233.158 100.864 232.308 102.379 231.88 104.218C231.669 105.134 231.577 106.037 231.702 106.834C231.834 107.631 232.209 108.277 232.591 108.758C233.389 109.707 234.021 110.168 233.988 110.208Z" fill="#263237"/>
<path d="M233.217 116.468C233.217 116.474 233.152 116.507 233.02 116.567C232.888 116.619 232.69 116.705 232.427 116.797C231.906 116.969 231.129 117.219 230.127 117.232C229.633 117.226 229.066 117.153 228.539 116.87C228.012 116.593 227.537 116.112 227.254 115.512C226.667 114.3 226.602 112.804 226.727 111.308C226.872 109.806 227.148 108.382 227.603 107.15C228.064 105.918 228.69 104.91 229.244 104.093C229.804 103.276 230.298 102.65 230.641 102.221C230.806 102.024 230.937 101.865 231.043 101.734C231.135 101.622 231.188 101.569 231.194 101.575C231.201 101.582 231.162 101.641 231.076 101.767C230.977 101.905 230.852 102.076 230.707 102.281C230.384 102.729 229.909 103.368 229.369 104.185C228.835 105.009 228.236 106.017 227.788 107.229C227.353 108.442 227.083 109.852 226.944 111.335C226.826 112.811 226.885 114.28 227.438 115.433C227.709 116.007 228.137 116.461 228.631 116.725C229.125 116.995 229.659 117.074 230.14 117.094C231.109 117.1 231.886 116.87 232.414 116.731C232.657 116.652 232.855 116.586 233.013 116.54C233.138 116.481 233.211 116.461 233.217 116.468Z" fill="#263237"/>
<path d="M231.115 101.22C231.135 101.246 230.766 101.51 230.206 101.964C229.646 102.419 228.895 103.091 228.163 103.915C227.432 104.738 226.858 105.562 226.47 106.175C226.081 106.788 225.87 107.183 225.837 107.17C225.817 107.157 225.982 106.735 226.338 106.096C226.694 105.457 227.26 104.607 227.998 103.77C228.743 102.933 229.514 102.274 230.107 101.839C230.7 101.417 231.102 101.2 231.115 101.22Z" fill="#263237"/>
<g opacity="0.3">
<g opacity="0.3">
<path opacity="0.3" d="M231.451 101.22C228.143 104.323 225.969 109.259 225.831 113.792C225.817 114.208 225.943 114.755 226.358 114.768C226.608 114.774 226.812 114.537 226.858 114.293C226.911 114.049 226.819 113.799 226.799 113.549C226.641 111.559 227.076 109.213 227.768 107.104C228.447 105.002 230.133 102.999 231.451 101.22Z" fill="black"/>
</g>
</g>
<g opacity="0.3">
<g opacity="0.3">
<path opacity="0.3" d="M234.377 98.597C232.967 100.172 231.649 101.879 230.937 103.862C230.226 105.845 230.193 108.165 231.273 109.977C231.57 110.478 232.17 110.985 232.677 110.689C233.026 110.484 233.092 109.997 232.967 109.615C232.835 109.232 232.558 108.929 232.334 108.6C231.353 107.177 231.32 105.266 231.834 103.612C232.348 101.958 233.336 100.508 234.318 99.078" fill="black"/>
</g>
</g>
<g opacity="0.3">
<g opacity="0.3">
<path opacity="0.3" d="M189.825 129.515C192.263 130.991 194.926 132.171 197.739 132.612C200.125 132.988 202.55 132.566 204.935 132.184C211.149 131.182 217.468 130.28 223.709 129.522C223.709 129.522 212.368 129.522 206.728 129.522C200.896 129.515 195.466 129.515 189.825 129.515Z" fill="black"/>
</g>
</g>
<path d="M213.521 157.297H174.88C172.323 157.297 170.248 155.221 170.248 152.664C170.248 150.107 172.323 148.032 174.88 148.032H213.521C216.078 148.032 218.154 150.107 218.154 152.664C218.154 155.221 216.078 157.297 213.521 157.297Z" fill="#D1D1D1"/>
<path d="M211.333 156.493C213.027 157.613 215.314 157.152 216.434 155.458L244.195 113.568C245.316 111.875 244.854 109.588 243.161 108.468C241.467 107.348 239.181 107.809 238.061 109.503L210.299 151.392C209.172 153.086 209.64 155.373 211.333 156.493Z" fill="#D1D1D1"/>
<path d="M189.957 138.444C190.036 138.444 192.856 141.198 193.515 143.057C194.174 144.915 195.038 149.468 195.44 151.195C195.986 153.567 196.863 155.847 200.105 155.999L212.368 156.045C213.126 156.045 213.824 155.669 214.24 155.03L224.974 138.437H221.62L212.249 152.394H201.627C200.883 152.394 200.164 152.071 199.716 151.485C199.571 151.294 199.453 151.076 199.393 150.839C199.156 149.883 198.313 144.908 197.298 142.747C196.276 140.592 194.84 138.437 194.84 138.437H189.957V138.444Z" fill="#9D9D9D"/>
<path d="M201.133 154.213C201.133 154.628 200.797 154.971 200.375 154.971C199.953 154.971 199.624 154.634 199.624 154.213C199.624 153.791 199.96 153.462 200.375 153.462C200.79 153.462 201.133 153.791 201.133 154.213Z" fill="#AFAFAF"/>
<path d="M213.001 154.213C213.001 154.628 212.665 154.971 212.243 154.971C211.821 154.971 211.492 154.634 211.492 154.213C211.492 153.791 211.828 153.462 212.243 153.462C212.658 153.462 213.001 153.791 213.001 154.213Z" fill="#AFAFAF"/>
<path d="M227.076 138.444H187.268C186.636 138.444 186.128 137.937 186.128 137.304C186.128 136.671 186.636 136.164 187.268 136.164H227.076C227.708 136.164 228.216 136.671 228.216 137.304C228.216 137.93 227.702 138.444 227.076 138.444Z" fill="#9D9D9D"/>
<path d="M203.611 136.164C203.611 136.164 203.578 136.171 203.505 136.177C203.426 136.177 203.321 136.184 203.195 136.19C202.912 136.197 202.51 136.204 201.996 136.217C200.935 136.23 199.413 136.25 197.515 136.269C195.604 136.283 193.298 136.302 190.695 136.296C190.043 136.289 189.371 136.283 188.685 136.276C188.007 136.283 187.262 136.138 186.669 136.493C186.386 136.665 186.208 136.988 186.3 137.324C186.346 137.66 186.636 137.904 186.959 138.049C187.618 138.332 188.409 138.371 189.166 138.339H189.173C191.716 138.339 194.458 138.339 197.298 138.332C205.489 138.345 212.895 138.358 218.279 138.365C220.954 138.378 223.122 138.391 224.638 138.398C225.376 138.404 225.956 138.411 226.364 138.418C226.555 138.424 226.7 138.424 226.812 138.431C226.911 138.437 226.964 138.437 226.964 138.444C226.964 138.451 226.911 138.451 226.812 138.457C226.7 138.457 226.549 138.464 226.364 138.47C225.956 138.477 225.376 138.484 224.638 138.49C223.122 138.497 220.954 138.51 218.279 138.523C212.902 138.53 205.489 138.543 197.298 138.556C194.464 138.556 191.716 138.556 189.173 138.549H189.179C188.389 138.582 187.598 138.543 186.873 138.233C186.524 138.082 186.168 137.778 186.109 137.363C186.102 137.264 186.082 137.172 186.089 137.06C186.102 136.955 186.129 136.856 186.175 136.764C186.26 136.579 186.412 136.434 186.577 136.329C186.913 136.124 187.295 136.072 187.651 136.065C188.013 136.065 188.356 136.091 188.698 136.091C189.384 136.098 190.056 136.111 190.702 136.118C193.305 136.124 195.604 136.131 197.522 136.138C199.426 136.138 200.948 136.144 202.009 136.144C202.523 136.151 202.925 136.151 203.209 136.151C203.334 136.151 203.439 136.157 203.518 136.157C203.578 136.157 203.611 136.164 203.611 136.164Z" fill="#7F7F7F"/>
<path d="M194.912 148.763C194.899 148.77 194.846 148.612 194.767 148.328C194.682 147.999 194.576 147.597 194.458 147.122C194.194 146.108 193.878 144.691 193.318 143.202C193.034 142.457 192.711 141.778 192.362 141.179C192.006 140.592 191.644 140.091 191.301 139.696C190.623 138.905 190.115 138.497 190.141 138.464C190.148 138.451 190.28 138.549 190.51 138.734C190.741 138.912 191.057 139.208 191.413 139.597C191.776 139.979 192.158 140.487 192.533 141.08C192.896 141.679 193.232 142.371 193.522 143.123C194.089 144.632 194.379 146.061 194.609 147.083C194.715 147.597 194.8 148.012 194.853 148.302C194.906 148.598 194.926 148.757 194.912 148.763Z" fill="#7F7F7F"/>
<path d="M196.349 157.297H193.68V190.923H196.349V157.297Z" fill="#9D9D9D"/>
<path d="M195.808 185.533L223.531 190.996V193.888L195.808 189.711V185.533Z" fill="#9D9D9D"/>
<path d="M221.073 198.435C222.43 198.435 223.531 197.335 223.531 195.977C223.531 194.62 222.43 193.519 221.073 193.519C219.715 193.519 218.615 194.62 218.615 195.977C218.615 197.335 219.715 198.435 221.073 198.435Z" fill="#9D9D9D"/>
<path d="M195.09 185.533L172.659 191.009V193.908L195.09 189.447V185.533Z" fill="#9D9D9D"/>
<path d="M175.117 198.435C176.475 198.435 177.575 197.335 177.575 195.977C177.575 194.62 176.475 193.519 175.117 193.519C173.76 193.519 172.659 194.62 172.659 195.977C172.659 197.335 173.76 198.435 175.117 198.435Z" fill="#9D9D9D"/>
<path d="M195.018 198.435C196.375 198.435 197.476 197.335 197.476 195.977C197.476 194.62 196.375 193.519 195.018 193.519C193.66 193.519 192.56 194.62 192.56 195.977C192.56 197.335 193.66 198.435 195.018 198.435Z" fill="#9D9D9D"/>
<path d="M197.818 193.519H192.25L192.31 172.486H197.878L197.818 193.519Z" fill="#9D9D9D"/>
<path d="M197.673 172.532C197.673 172.591 196.494 172.637 195.038 172.637C193.581 172.637 192.402 172.591 192.402 172.532C192.402 172.472 193.581 172.426 195.038 172.426C196.487 172.42 197.673 172.472 197.673 172.532Z" fill="#7F7F7F"/>
<path d="M197.495 189.954C197.495 190.014 196.316 190.06 194.86 190.06C193.403 190.06 192.224 190.014 192.224 189.954C192.224 189.895 193.403 189.849 194.86 189.849C196.316 189.849 197.495 189.895 197.495 189.954Z" fill="#7F7F7F"/>
<path d="M233.283 123.756H101.512V129.515H233.283V123.756Z" fill="#4D4C4D"/>
<path d="M113.63 198.58H111.759L110.691 129.074H114.698L113.63 198.58Z" fill="#4D4C4D"/>
<path d="M234.357 198.435H232.486L233.422 129.271H237.428L234.357 198.435Z" fill="#3F3F3F"/>
<path d="M243.708 123.756H227.003V129.522H243.708V123.756Z" fill="#3F3F3F"/>
<path d="M123.297 113.872L124.813 123.822H133.603L135.646 114.016L123.297 113.872Z" fill="#D1D1D1"/>
<path d="M122.289 111.908V113.766C122.289 114.168 122.618 114.498 123.02 114.498H135.758C136.16 114.498 136.489 114.168 136.489 113.766V111.908H122.289Z" fill="#EBEBEB"/>
<g opacity="0.4">
<g opacity="0.4">
<g opacity="0.4">
<g opacity="0.4">
<path opacity="0.4" d="M123.389 114.498L123.495 115.091L135.25 115.927L135.547 114.498H123.389Z" fill="black"/>
</g>
</g>
</g>
</g>
<path d="M126.908 111.901C125.037 110.814 124.035 108.29 123.963 106.228C123.89 104.165 124.747 102.004 126.44 100.824C128.226 99.5788 130.763 99.5986 132.602 100.772C134.433 101.944 135.508 104.159 135.428 106.34C135.343 108.514 134.157 110.59 132.404 111.881" fill="#D1D1D1"/>
<path d="M129.893 112.099C129.88 112.099 129.867 111.928 129.86 111.624C129.854 111.288 129.841 110.854 129.821 110.333C129.794 109.246 129.748 107.743 129.676 106.083C129.603 104.422 129.511 102.926 129.445 101.839C129.412 101.325 129.386 100.89 129.366 100.554C129.353 100.251 129.346 100.08 129.359 100.08C129.373 100.08 129.399 100.244 129.432 100.547C129.471 100.851 129.518 101.285 129.564 101.832C129.663 102.92 129.775 104.416 129.847 106.076C129.92 107.737 129.946 109.239 129.939 110.333C129.939 110.88 129.933 111.321 129.92 111.624C129.92 111.928 129.906 112.099 129.893 112.099Z" fill="#9D9D9D"/>
<path d="M124.516 105.753C124.509 105.799 124.213 105.819 123.85 105.786C123.488 105.753 123.192 105.694 123.198 105.648C123.205 105.602 123.501 105.582 123.864 105.615C124.226 105.648 124.516 105.707 124.516 105.753Z" fill="#9D9D9D"/>
<path d="M124.615 103.902C124.595 103.948 124.338 103.875 124.042 103.743C123.745 103.612 123.521 103.467 123.541 103.427C123.561 103.381 123.818 103.453 124.114 103.585C124.411 103.717 124.635 103.862 124.615 103.902Z" fill="#9D9D9D"/>
<path d="M125.57 102.524C125.544 102.564 125.254 102.425 124.958 102.182C124.654 101.931 124.47 101.674 124.503 101.641C124.536 101.608 124.78 101.806 125.07 102.043C125.36 102.287 125.597 102.485 125.57 102.524Z" fill="#9D9D9D"/>
<path d="M126.526 101.226C126.48 101.246 126.341 101.028 126.216 100.745C126.091 100.455 126.025 100.211 126.065 100.192C126.111 100.172 126.249 100.389 126.374 100.673C126.506 100.963 126.572 101.213 126.526 101.226Z" fill="#9D9D9D"/>
<path d="M128.035 100.31C127.989 100.33 127.844 100.099 127.745 99.7831C127.646 99.4602 127.64 99.19 127.686 99.1834C127.732 99.1768 127.817 99.4272 127.916 99.7304C128.002 100.033 128.081 100.29 128.035 100.31Z" fill="#9D9D9D"/>
<path d="M130.546 99.2691C130.592 99.2823 130.565 99.48 130.486 99.7106C130.407 99.9346 130.302 100.106 130.256 100.093C130.209 100.08 130.236 99.8819 130.315 99.6513C130.394 99.4272 130.499 99.2559 130.546 99.2691Z" fill="#9D9D9D"/>
<path d="M132.404 100.066C132.437 100.099 132.318 100.264 132.14 100.435C131.962 100.6 131.785 100.706 131.752 100.673C131.719 100.64 131.837 100.475 132.022 100.304C132.2 100.139 132.371 100.033 132.404 100.066Z" fill="#9D9D9D"/>
<path d="M134.045 101.127C134.071 101.167 133.926 101.312 133.722 101.457C133.518 101.595 133.326 101.681 133.3 101.635C133.274 101.595 133.419 101.45 133.623 101.305C133.827 101.167 134.018 101.088 134.045 101.127Z" fill="#9D9D9D"/>
<path d="M135.211 102.709C135.231 102.755 135 102.893 134.697 103.025C134.394 103.157 134.137 103.223 134.117 103.177C134.097 103.131 134.328 102.992 134.631 102.86C134.934 102.729 135.191 102.663 135.211 102.709Z" fill="#9D9D9D"/>
<path d="M135.672 104.429C135.679 104.475 135.442 104.547 135.152 104.58C134.855 104.62 134.611 104.607 134.611 104.561C134.605 104.514 134.842 104.442 135.132 104.409C135.422 104.369 135.666 104.383 135.672 104.429Z" fill="#9D9D9D"/>
<path d="M135.909 106.551C135.89 106.597 135.639 106.531 135.356 106.406C135.066 106.28 134.849 106.142 134.868 106.096C134.888 106.05 135.138 106.116 135.422 106.241C135.712 106.366 135.929 106.504 135.909 106.551Z" fill="#9D9D9D"/>
<path d="M135.699 108.369C135.685 108.415 135.369 108.336 135.04 108.125C134.71 107.908 134.512 107.651 134.552 107.618C134.585 107.585 134.829 107.776 135.138 107.974C135.442 108.178 135.718 108.323 135.699 108.369Z" fill="#9D9D9D"/>
<path d="M134.75 110.023C134.723 110.063 134.473 109.911 134.229 109.654C133.985 109.397 133.86 109.134 133.9 109.107C133.939 109.081 134.13 109.285 134.361 109.536C134.592 109.779 134.783 109.984 134.75 110.023Z" fill="#9D9D9D"/>
<path d="M125.761 110.214C125.781 110.26 125.518 110.438 125.175 110.616C124.826 110.794 124.529 110.906 124.509 110.867C124.49 110.821 124.753 110.643 125.096 110.465C125.439 110.287 125.735 110.175 125.761 110.214Z" fill="#9D9D9D"/>
<path d="M124.938 108.718C124.958 108.765 124.747 108.903 124.47 109.028C124.187 109.153 123.949 109.219 123.93 109.18C123.91 109.134 124.121 108.995 124.397 108.87C124.674 108.745 124.918 108.672 124.938 108.718Z" fill="#9D9D9D"/>
<path d="M124.332 107.394C124.338 107.44 124.081 107.519 123.752 107.565C123.422 107.611 123.152 107.611 123.146 107.565C123.139 107.519 123.396 107.44 123.725 107.394C124.055 107.341 124.325 107.348 124.332 107.394Z" fill="#9D9D9D"/>
<path d="M126.315 106.663C126.328 106.709 126.078 106.827 125.735 106.86C125.399 106.9 125.122 106.84 125.129 106.794C125.136 106.742 125.399 106.722 125.715 106.689C126.038 106.656 126.302 106.616 126.315 106.663Z" fill="#9D9D9D"/>
<path d="M127.963 105.022C127.976 105.068 127.778 105.167 127.501 105.193C127.231 105.219 127.014 105.16 127.02 105.114C127.027 105.068 127.238 105.048 127.488 105.022C127.739 105.002 127.943 104.976 127.963 105.022Z" fill="#9D9D9D"/>
<path d="M128.272 103.717C128.259 103.763 128.035 103.73 127.785 103.645C127.534 103.559 127.336 103.447 127.356 103.401C127.369 103.355 127.593 103.388 127.844 103.473C128.094 103.559 128.292 103.671 128.272 103.717Z" fill="#9D9D9D"/>
<path d="M128.879 102.386C128.846 102.419 128.694 102.32 128.589 102.136C128.483 101.951 128.47 101.773 128.516 101.76C128.562 101.747 128.641 101.885 128.74 102.05C128.832 102.215 128.911 102.353 128.879 102.386Z" fill="#9D9D9D"/>
<path d="M128.147 107.816C128.16 107.862 127.969 107.948 127.725 108.007C127.587 108.04 127.455 108.06 127.369 108.06L127.337 107.954C127.402 107.941 127.442 107.948 127.449 107.967C127.455 107.987 127.429 108.02 127.383 108.06L127.35 107.954C127.422 107.915 127.547 107.868 127.686 107.835C127.93 107.783 128.14 107.77 128.147 107.816Z" fill="#9D9D9D"/>
<path d="M128.49 110.142C128.509 110.188 128.266 110.326 127.949 110.445C127.633 110.57 127.363 110.629 127.35 110.59C127.33 110.544 127.574 110.405 127.89 110.287C128.2 110.162 128.47 110.096 128.49 110.142Z" fill="#9D9D9D"/>
<path d="M126.631 109.107C126.645 109.153 126.486 109.252 126.276 109.325C126.065 109.397 125.874 109.417 125.86 109.371C125.847 109.325 126.005 109.226 126.216 109.153C126.427 109.088 126.612 109.061 126.631 109.107Z" fill="#9D9D9D"/>
<path d="M126.77 104.376C126.757 104.422 126.48 104.396 126.157 104.277C125.834 104.165 125.597 104.007 125.617 103.967C125.636 103.921 125.9 104 126.21 104.112C126.533 104.224 126.783 104.33 126.77 104.376Z" fill="#9D9D9D"/>
<path d="M131.27 103.862C131.297 103.902 131.139 104.053 130.921 104.198C130.697 104.343 130.499 104.429 130.473 104.389C130.447 104.35 130.605 104.198 130.822 104.053C131.04 103.908 131.244 103.822 131.27 103.862Z" fill="#9D9D9D"/>
<path d="M131.514 106.195C131.521 106.241 131.356 106.313 131.145 106.359C130.934 106.406 130.75 106.399 130.737 106.353C130.73 106.307 130.895 106.234 131.106 106.188C131.323 106.149 131.501 106.149 131.514 106.195Z" fill="#9D9D9D"/>
<path d="M131.798 108.824C131.778 108.87 131.541 108.798 131.264 108.672C130.987 108.547 130.783 108.409 130.803 108.363C130.822 108.317 131.06 108.389 131.336 108.514C131.613 108.639 131.817 108.778 131.798 108.824Z" fill="#9D9D9D"/>
<path d="M131.198 111.381C131.158 111.414 131.007 111.282 130.855 111.097C130.704 110.913 130.605 110.735 130.644 110.702C130.684 110.669 130.836 110.801 130.987 110.985C131.139 111.17 131.238 111.348 131.198 111.381Z" fill="#9D9D9D"/>
<path d="M131.073 102.142C131.099 102.182 131 102.307 130.822 102.399C130.644 102.485 130.486 102.491 130.473 102.445C130.46 102.399 130.585 102.32 130.743 102.241C130.908 102.162 131.046 102.103 131.073 102.142Z" fill="#9D9D9D"/>
<path d="M133.28 104.501C133.293 104.547 133.089 104.659 132.812 104.699C132.536 104.738 132.305 104.686 132.312 104.64C132.312 104.593 132.529 104.56 132.793 104.528C133.05 104.481 133.26 104.448 133.28 104.501Z" fill="#9D9D9D"/>
<path d="M132.839 102.386C132.858 102.425 132.661 102.57 132.371 102.663C132.081 102.755 131.837 102.755 131.83 102.709C131.824 102.663 132.048 102.584 132.318 102.498C132.588 102.406 132.819 102.34 132.839 102.386Z" fill="#9D9D9D"/>
<path d="M133.761 107.77C133.761 107.816 133.412 107.849 132.997 107.77C132.582 107.697 132.265 107.546 132.279 107.499C132.292 107.453 132.621 107.526 133.023 107.598C133.425 107.677 133.761 107.723 133.761 107.77Z" fill="#9D9D9D"/>
<path d="M132.938 110.84C132.911 110.88 132.654 110.728 132.397 110.471C132.14 110.214 131.995 109.957 132.028 109.931C132.068 109.898 132.272 110.102 132.516 110.346C132.773 110.597 132.97 110.801 132.938 110.84Z" fill="#9D9D9D"/>
<path d="M129.34 99.8885C129.366 99.928 128.641 100.218 127.804 101.101C126.967 101.964 126.104 103.493 125.887 105.331C125.788 106.247 125.874 107.137 126.005 107.928C126.144 108.718 126.322 109.424 126.493 110.01C126.664 110.597 126.816 111.064 126.921 111.394C127.027 111.717 127.08 111.901 127.066 111.908C127.053 111.914 126.981 111.737 126.855 111.42C126.73 111.104 126.559 110.636 126.374 110.05C126.19 109.463 125.992 108.758 125.847 107.961C125.709 107.163 125.61 106.261 125.715 105.318C125.933 103.434 126.836 101.879 127.712 101.022C128.147 100.587 128.562 100.297 128.859 100.126C129.004 100.033 129.129 99.9873 129.208 99.9412C129.294 99.8951 129.333 99.8819 129.34 99.8885Z" fill="#9D9D9D"/>
<path d="M131.732 112.013C131.692 111.994 132.127 111.328 132.522 110.129C132.931 108.943 133.267 107.19 132.99 105.285C132.865 104.336 132.588 103.453 132.246 102.702C131.89 101.958 131.422 101.351 130.974 100.93C130.506 100.515 130.045 100.277 129.728 100.139C129.406 100.001 129.208 99.9742 129.215 99.9544C129.215 99.9478 129.267 99.9544 129.359 99.9676C129.452 99.9873 129.59 100.014 129.755 100.073C130.091 100.192 130.565 100.416 131.06 100.831C131.541 101.259 132.015 101.865 132.397 102.63C132.76 103.394 133.043 104.29 133.175 105.259C133.452 107.196 133.089 108.982 132.648 110.168C132.549 110.471 132.424 110.728 132.325 110.966C132.213 111.19 132.121 111.387 132.035 111.545C131.844 111.849 131.738 112.02 131.732 112.013Z" fill="#9D9D9D"/>
<path d="M244.472 171.056C241.388 172.13 237.369 171.168 234.733 169.244C232.097 167.319 230.199 164.558 228.512 161.758C227.794 160.565 227.096 159.32 226.865 157.942C226.641 156.565 226.97 155.023 228.038 154.12C229.692 152.724 232.236 153.435 234.114 154.503C240.011 157.87 244.031 164.295 244.472 171.056Z" fill="#E8BCB3"/>
<path d="M241.164 178.436C239.313 180.881 236.13 181.968 233.072 182.106C230.008 182.251 226.984 181.401 224.124 180.301C223.083 179.905 221.949 179.358 221.593 178.304C221.323 177.507 221.6 176.597 222.134 175.945C222.668 175.293 223.425 174.864 224.203 174.535C227.017 173.336 230.246 173.276 233.211 174.047C236.17 174.825 238.759 176.545 241.164 178.436Z" fill="#E8BCB3"/>
<path d="M244.518 157.85C241.968 157.903 240.038 155.662 238.878 153.389C237.277 150.239 236.736 146.562 237.356 143.076C237.586 141.772 238.08 140.368 239.247 139.736C240.433 139.096 241.975 139.518 242.97 140.427C243.965 141.337 244.512 142.628 244.907 143.92C246.278 148.355 245.988 153.448 244.518 157.85Z" fill="#E8BCB3"/>
<path d="M252.9 171.965C248.551 164.558 247.826 155.498 250.396 147.3C250.811 145.969 251.602 144.447 252.993 144.361C254.535 144.263 255.497 145.982 255.925 147.465C257.414 152.671 257.098 158.199 256.768 163.603C256.558 166.931 255.418 169.777 252.9 171.965Z" fill="#E8BCB3"/>
<path d="M257.427 175.009C259.002 169.935 263.015 165.685 267.984 163.814C269.137 163.379 270.607 163.128 271.47 164.018C272.313 164.888 272.056 166.338 271.509 167.418C270.633 169.164 269.21 170.575 267.793 171.919C266.501 173.145 265.164 174.377 263.536 175.088C261.908 175.8 258.917 175.985 257.427 175.009Z" fill="#E8BCB3"/>
<path d="M230.45 155.985C230.45 155.985 230.476 156.012 230.529 156.051C230.588 156.097 230.667 156.157 230.766 156.236C230.99 156.4 231.293 156.631 231.675 156.914C231.873 157.059 232.097 157.224 232.334 157.402C232.572 157.587 232.822 157.797 233.092 158.022C233.632 158.47 234.265 158.957 234.911 159.563C235.24 159.86 235.583 160.17 235.939 160.493C236.295 160.815 236.637 161.184 237.006 161.554C237.758 162.272 238.482 163.115 239.26 163.985C240.769 165.764 242.317 167.814 243.747 170.1C245.151 172.4 246.298 174.706 247.214 176.848C247.642 177.935 248.07 178.957 248.38 179.952C248.538 180.446 248.716 180.914 248.848 181.381C248.98 181.843 249.105 182.291 249.223 182.719C249.48 183.563 249.632 184.353 249.79 185.032C249.869 185.375 249.948 185.691 250.001 185.988C250.054 186.284 250.1 186.554 250.139 186.798C250.225 187.273 250.291 187.648 250.344 187.918C250.37 188.037 250.383 188.129 250.403 188.208C250.416 188.274 250.429 188.307 250.429 188.307C250.436 188.307 250.429 188.274 250.423 188.208C250.409 188.129 250.403 188.03 250.383 187.912C250.344 187.635 250.291 187.259 250.218 186.785C250.179 186.541 250.139 186.264 250.093 185.968C250.04 185.671 249.968 185.355 249.895 185.006C249.744 184.32 249.606 183.53 249.355 182.68C249.237 182.251 249.118 181.803 248.993 181.335C248.861 180.867 248.69 180.393 248.531 179.899C248.228 178.904 247.807 177.869 247.378 176.775C246.469 174.614 245.322 172.301 243.912 169.988C242.476 167.695 240.921 165.632 239.392 163.853C238.608 162.983 237.87 162.147 237.112 161.428C236.736 161.066 236.393 160.697 236.031 160.374C235.669 160.051 235.326 159.741 234.99 159.451C234.344 158.845 233.698 158.371 233.151 157.929C232.875 157.712 232.624 157.501 232.38 157.323C232.137 157.152 231.913 156.994 231.708 156.849C231.313 156.572 230.997 156.354 230.773 156.196C230.674 156.13 230.595 156.078 230.529 156.031C230.476 155.999 230.45 155.985 230.45 155.985Z" fill="#1A2E35"/>
<path d="M224.684 176.518C224.684 176.525 224.789 176.505 224.98 176.466C225.178 176.433 225.455 176.354 225.83 176.294C226.568 176.149 227.643 175.985 228.98 175.912C231.642 175.741 235.425 176.057 239.214 177.632C243.003 179.207 245.889 181.671 247.648 183.681C248.538 184.683 249.177 185.566 249.592 186.185C249.81 186.488 249.955 186.745 250.067 186.91C250.179 187.075 250.238 187.161 250.245 187.154C250.251 187.147 250.205 187.055 250.106 186.884C250.007 186.712 249.869 186.455 249.665 186.139C249.269 185.5 248.637 184.604 247.76 183.582C246.021 181.54 243.121 179.036 239.293 177.441C235.471 175.853 231.649 175.556 228.974 175.767C227.629 175.866 226.549 176.051 225.817 176.222C225.448 176.294 225.165 176.387 224.974 176.433C224.783 176.479 224.684 176.512 224.684 176.518Z" fill="#1A2E35"/>
<path d="M240.756 142.701C240.749 142.701 240.756 142.74 240.776 142.813C240.795 142.898 240.815 143.011 240.848 143.142C240.914 143.445 241.013 143.874 241.131 144.414C241.382 145.521 241.764 147.116 242.245 149.086C243.2 153.027 244.597 158.456 246.047 164.473C246.765 167.484 247.418 170.357 247.985 172.98C248.538 175.602 249.006 177.975 249.355 179.971C249.546 180.966 249.685 181.876 249.816 182.666C249.955 183.457 250.06 184.149 250.139 184.709C250.225 185.256 250.291 185.691 250.337 186.001C250.363 186.139 250.377 186.251 250.396 186.337C250.409 186.409 250.416 186.449 250.423 186.449C250.429 186.449 250.423 186.409 250.416 186.33C250.409 186.245 250.396 186.133 250.377 185.994C250.337 185.684 250.284 185.25 250.212 184.696C250.139 184.136 250.047 183.444 249.922 182.647C249.797 181.849 249.665 180.94 249.487 179.945C249.157 177.942 248.696 175.569 248.156 172.94C247.602 170.318 246.957 167.438 246.232 164.427C244.782 158.41 243.365 152.987 242.37 149.053C241.876 147.096 241.474 145.508 241.191 144.394C241.052 143.854 240.947 143.432 240.868 143.129C240.828 142.997 240.802 142.885 240.776 142.8C240.769 142.734 240.756 142.701 240.756 142.701Z" fill="#1A2E35"/>
<path d="M250.746 185.856C250.752 185.856 250.759 185.823 250.772 185.764C250.785 185.691 250.812 185.605 250.831 185.493C250.884 185.243 250.956 184.894 251.049 184.465C251.233 183.569 251.477 182.271 251.754 180.657C252.314 177.434 252.973 172.96 253.381 167.985C253.579 165.494 253.691 163.122 253.737 160.954C253.77 158.792 253.757 156.842 253.685 155.208C253.665 154.391 253.612 153.653 253.573 153C253.54 152.355 253.493 151.794 253.454 151.34C253.414 150.898 253.381 150.549 253.355 150.292C253.342 150.18 253.335 150.094 253.322 150.022C253.316 149.962 253.309 149.93 253.302 149.93C253.296 149.93 253.296 149.962 253.296 150.022C253.296 150.094 253.302 150.187 253.309 150.299C253.322 150.556 253.342 150.905 253.368 151.346C253.401 151.801 253.434 152.361 253.454 153.007C253.48 153.653 253.52 154.391 253.533 155.208C253.579 156.842 253.586 158.786 253.54 160.947C253.48 163.109 253.368 165.481 253.171 167.965C252.762 172.934 252.129 177.408 251.609 180.63C251.352 182.245 251.128 183.549 250.963 184.446C250.891 184.881 250.831 185.23 250.785 185.487C250.772 185.599 250.752 185.684 250.746 185.757C250.746 185.829 250.746 185.856 250.746 185.856Z" fill="#1A2E35"/>
<path d="M250.423 186.798C250.429 186.798 250.469 186.712 250.535 186.541C250.607 186.35 250.706 186.106 250.818 185.796C250.877 185.632 250.95 185.454 251.022 185.256C251.108 185.065 251.2 184.854 251.299 184.63C251.398 184.406 251.503 184.162 251.615 183.912C251.727 183.655 251.872 183.398 252.011 183.121C252.156 182.844 252.301 182.554 252.452 182.258C252.624 181.968 252.802 181.665 252.98 181.349C253.329 180.709 253.783 180.077 254.218 179.385C255.154 178.041 256.248 176.611 257.493 175.194C258.752 173.79 260.043 172.525 261.256 171.431C261.882 170.904 262.455 170.377 263.035 169.935C263.319 169.711 263.595 169.487 263.859 169.276C264.129 169.079 264.393 168.881 264.643 168.697C265.137 168.321 265.598 168.011 266.007 167.735C266.409 167.451 266.765 167.221 267.061 167.043C267.338 166.865 267.562 166.726 267.733 166.614C267.885 166.515 267.964 166.456 267.964 166.456C267.958 166.45 267.872 166.496 267.714 166.581C267.536 166.68 267.305 166.812 267.022 166.977C266.719 167.148 266.356 167.372 265.948 167.642C265.533 167.906 265.058 168.216 264.557 168.585C264.307 168.769 264.037 168.954 263.767 169.151C263.496 169.362 263.22 169.58 262.93 169.804C262.343 170.239 261.763 170.766 261.131 171.293C259.905 172.387 258.607 173.652 257.342 175.062C256.09 176.485 254.989 177.922 254.06 179.279C253.625 179.978 253.177 180.617 252.835 181.263C252.657 181.579 252.479 181.889 252.314 182.185C252.162 182.489 252.017 182.778 251.879 183.062C251.747 183.345 251.602 183.602 251.497 183.859C251.391 184.116 251.286 184.36 251.194 184.591C251.101 184.815 251.009 185.032 250.93 185.223C250.864 185.421 250.798 185.605 250.739 185.77C250.634 186.086 250.555 186.337 250.489 186.528C250.443 186.706 250.416 186.798 250.423 186.798Z" fill="#1A2E35"/>
<path d="M232.058 164.578C232.058 164.611 232.585 164.611 233.435 164.657C234.285 164.703 235.451 164.815 236.717 165.053C237.988 165.296 239.115 165.619 239.919 165.889C240.723 166.153 241.217 166.351 241.224 166.318C241.23 166.305 241.112 166.245 240.894 166.14C240.677 166.034 240.361 165.903 239.959 165.751C239.161 165.448 238.028 165.099 236.749 164.855C235.465 164.611 234.285 164.525 233.428 164.512C233 164.506 232.657 164.512 232.42 164.532C232.19 164.545 232.058 164.565 232.058 164.578Z" fill="#1A2E35"/>
<path d="M228.776 180.61C228.835 180.643 229.33 179.227 230.568 177.909C231.787 176.578 233.165 175.985 233.132 175.925C233.125 175.906 232.769 176.024 232.249 176.314C231.728 176.604 231.049 177.098 230.423 177.77C229.797 178.443 229.362 179.161 229.105 179.701C228.849 180.241 228.756 180.604 228.776 180.61Z" fill="#1A2E35"/>
<path d="M239.972 148.71C239.932 148.757 240.729 149.547 241.606 150.628C242.482 151.702 243.102 152.644 243.154 152.611C243.2 152.585 242.654 151.584 241.764 150.496C240.881 149.409 240.005 148.671 239.972 148.71Z" fill="#1A2E35"/>
<path d="M242.601 144.17C242.548 144.164 242.37 144.928 242.206 145.89C242.041 146.846 241.955 147.63 242.014 147.643C242.067 147.65 242.245 146.885 242.41 145.923C242.568 144.968 242.654 144.183 242.601 144.17Z" fill="#1A2E35"/>
<path d="M250.739 158.417C250.686 158.443 251.26 159.643 252.011 161.099C252.762 162.555 253.414 163.708 253.467 163.682C253.52 163.656 252.947 162.456 252.195 161C251.444 159.55 250.792 158.391 250.739 158.417Z" fill="#1A2E35"/>
<path d="M255.589 153.58C255.536 153.554 255.055 154.424 254.508 155.517C253.961 156.611 253.559 157.521 253.612 157.547C253.665 157.573 254.146 156.704 254.693 155.61C255.233 154.516 255.635 153.607 255.589 153.58Z" fill="#1A2E35"/>
<path d="M262.706 170.127C262.719 170.186 263.582 170.015 264.663 169.942C265.737 169.863 266.62 169.909 266.626 169.85C266.633 169.797 265.75 169.659 264.65 169.738C263.549 169.81 262.693 170.074 262.706 170.127Z" fill="#1A2E35"/>
<path d="M257.843 184.749L255.418 197.486C255.259 198.33 254.521 198.936 253.665 198.936H246.509C245.632 198.936 244.888 198.303 244.749 197.44L242.641 184.742H257.843V184.749Z" fill="#17282F"/>
<path d="M257.058 188.894H243.372L242.641 184.749H257.843L257.058 188.894Z" fill="#17282F"/>
<path d="M257.058 188.894L256.768 190.403H243.583L243.372 188.894H257.058Z" fill="#FAFAFA"/>
<path d="M136.212 50.239C142.684 43.7671 142.684 33.2739 136.212 26.8019C129.74 20.3299 119.247 20.3299 112.775 26.8019C106.303 33.2739 106.303 43.7671 112.775 50.239C119.247 56.711 129.74 56.711 136.212 50.239Z" fill="#D28C8C"/>
<path d="M137.492 47.0561C142.254 39.8423 140.266 30.1344 133.052 25.3728C125.838 20.6111 116.13 22.599 111.369 29.8127C106.607 37.0265 108.595 46.7344 115.809 51.4961C123.022 56.2577 132.73 54.2698 137.492 47.0561Z" fill="#FAFAFA"/>
<path d="M108.82 37.413C108.82 37.413 108.826 37.4986 108.826 37.67C108.826 37.8479 108.826 38.0917 108.826 38.4146C108.826 38.5793 108.826 38.7638 108.826 38.9615C108.833 39.1658 108.866 39.3833 108.886 39.6205C108.905 39.8577 108.932 40.1147 108.958 40.3915C108.971 40.6682 109.057 40.9516 109.11 41.2547C109.307 42.4803 109.775 43.9432 110.566 45.5115C111.363 47.0733 112.556 48.7272 114.23 50.1769C114.441 50.3549 114.652 50.5394 114.869 50.7239C115.093 50.8952 115.337 51.0533 115.568 51.2181C115.811 51.3762 116.035 51.5673 116.299 51.7057C116.556 51.8507 116.82 51.9957 117.083 52.1472L117.478 52.3713L117.9 52.5558C118.184 52.681 118.467 52.8062 118.75 52.9314C119.04 53.05 119.35 53.1356 119.646 53.2345C119.95 53.3267 120.253 53.4519 120.569 53.5112C121.208 53.643 121.847 53.821 122.519 53.8671C122.856 53.9 123.192 53.9528 123.528 53.9725C123.87 53.9791 124.213 53.9791 124.556 53.9857C124.727 53.9857 124.905 53.9989 125.076 53.9857L125.597 53.9396C125.946 53.9066 126.302 53.8869 126.651 53.8407C127.35 53.7023 128.068 53.6035 128.76 53.3663C129.471 53.1884 130.15 52.8852 130.842 52.6085C131.178 52.4503 131.508 52.2658 131.844 52.0945C132.008 52.0022 132.186 51.9298 132.344 51.8243L132.826 51.5146C133.484 51.1258 134.071 50.6184 134.684 50.1374C135.244 49.5971 135.83 49.0633 136.325 48.4373L136.713 47.9826L137.056 47.495L137.399 47.0008C137.517 46.836 137.629 46.6713 137.722 46.4934C137.919 46.1441 138.117 45.7883 138.321 45.4325C138.486 45.0634 138.651 44.6878 138.815 44.3122C139.422 42.7901 139.804 41.1558 139.936 39.4689C140.021 37.782 139.863 36.1148 139.455 34.5202C139.336 34.1248 139.224 33.736 139.112 33.3406C138.96 32.965 138.809 32.5894 138.657 32.2138C138.591 32.0227 138.499 31.8448 138.4 31.6669L138.124 31.1331L137.847 30.5994L137.524 30.0986C137.115 29.4133 136.608 28.8136 136.12 28.2008C135.58 27.6407 135.059 27.0608 134.46 26.5863L134.025 26.2173C133.88 26.0921 133.715 25.9933 133.564 25.8813C133.254 25.6704 132.951 25.4398 132.634 25.2421C131.982 24.8731 131.349 24.4909 130.671 24.2207C130.012 23.8912 129.313 23.7067 128.641 23.4761C128.299 23.3838 127.949 23.3179 127.607 23.2389L127.093 23.1268C126.921 23.0939 126.75 23.0807 126.579 23.0609C126.236 23.0214 125.893 22.9819 125.557 22.9423C125.215 22.916 124.879 22.9226 124.542 22.916C123.87 22.8764 123.211 22.9621 122.566 23.0148C122.243 23.028 121.926 23.1137 121.61 23.1664C121.3 23.2323 120.984 23.2718 120.681 23.3509C120.378 23.4365 120.081 23.5288 119.785 23.6145C119.64 23.6606 119.488 23.7001 119.343 23.7397C119.205 23.799 119.06 23.8517 118.922 23.9044C118.638 24.0164 118.361 24.1284 118.091 24.2405C117.815 24.3459 117.564 24.504 117.307 24.6292C117.05 24.7676 116.793 24.8928 116.549 25.0312C116.312 25.1828 116.075 25.3343 115.844 25.4859C113.993 26.705 112.596 28.1876 111.601 29.6373C110.612 31.087 109.953 32.4774 109.597 33.6635C109.505 33.9601 109.387 34.2302 109.34 34.5004C109.281 34.7706 109.222 35.021 109.169 35.2516C109.116 35.4822 109.064 35.6997 109.024 35.8974C108.998 36.0951 108.978 36.2796 108.958 36.4377C108.919 36.754 108.886 37.0044 108.859 37.1758C108.833 37.3273 108.82 37.413 108.82 37.413C108.82 37.413 108.82 37.3273 108.84 37.1626C108.859 36.9847 108.886 36.7408 108.912 36.418C108.932 36.2532 108.952 36.0687 108.971 35.871C109.004 35.6733 109.057 35.4559 109.103 35.2187C109.156 34.9814 109.209 34.731 109.268 34.4609C109.314 34.1907 109.433 33.9139 109.518 33.6174C109.861 32.4181 110.513 31.0145 111.502 29.5451C112.497 28.0822 113.9 26.5732 115.759 25.3343C115.989 25.1828 116.226 25.0246 116.47 24.8731C116.721 24.7281 116.978 24.6029 117.235 24.4645C117.498 24.3327 117.749 24.1746 118.025 24.0691C118.302 23.9571 118.579 23.8451 118.862 23.7265C119.001 23.6672 119.146 23.6145 119.291 23.5552C119.436 23.509 119.587 23.4695 119.739 23.4234C120.035 23.3377 120.338 23.2454 120.641 23.1598C120.945 23.0807 121.267 23.0346 121.584 22.9687C121.9 22.916 122.216 22.8237 122.546 22.8105C123.198 22.7578 123.864 22.6656 124.549 22.7051C124.892 22.7117 125.234 22.7051 125.577 22.7315C125.92 22.771 126.262 22.8105 126.612 22.8501C126.783 22.8764 126.961 22.883 127.132 22.916L127.653 23.028C128.002 23.1071 128.351 23.173 128.7 23.2652C129.379 23.4958 130.091 23.6869 130.756 24.0164C131.448 24.2866 132.088 24.6754 132.746 25.051C133.069 25.2553 133.372 25.4793 133.689 25.6968C133.84 25.8088 134.012 25.9076 134.157 26.0328L134.598 26.4084C135.211 26.8895 135.732 27.4759 136.285 28.0426C136.779 28.6621 137.293 29.2683 137.708 29.9668L138.038 30.4742L138.321 31.0145L138.605 31.5549C138.703 31.7328 138.789 31.9173 138.862 32.1084C139.013 32.4906 139.171 32.8728 139.323 33.255C139.441 33.6503 139.553 34.0457 139.672 34.4477C140.081 36.0621 140.245 37.7556 140.16 39.4623C140.028 41.169 139.639 42.823 139.02 44.3715C138.848 44.7537 138.684 45.1293 138.519 45.5049C138.315 45.8674 138.11 46.2232 137.913 46.579C137.82 46.7636 137.708 46.9283 137.583 47.093L137.234 47.5938L136.885 48.0881L136.489 48.5493C135.989 49.1819 135.395 49.7223 134.829 50.2692C134.209 50.7568 133.61 51.2708 132.944 51.6662L132.45 51.9891C132.292 52.0945 132.114 52.1736 131.943 52.2658C131.6 52.4372 131.27 52.6283 130.928 52.7864C130.223 53.0697 129.537 53.3729 128.819 53.5508C128.114 53.788 127.389 53.8803 126.684 54.0252C126.328 54.0714 125.972 54.0911 125.617 54.1241L125.089 54.1702C124.911 54.1834 124.74 54.1702 124.562 54.1702C124.213 54.1636 123.864 54.157 123.521 54.1504C123.178 54.1307 122.836 54.078 122.5 54.0384C121.821 53.9857 121.175 53.8078 120.529 53.676C120.207 53.6167 119.903 53.4915 119.594 53.3926C119.291 53.2872 118.981 53.2015 118.684 53.0829C118.394 52.9511 118.104 52.8259 117.821 52.7007C117.676 52.6348 117.538 52.5755 117.399 52.5096L116.997 52.2856C116.734 52.134 116.47 51.9891 116.207 51.8375C115.943 51.6925 115.712 51.5014 115.469 51.3433C115.231 51.172 114.988 51.0138 114.764 50.8425C114.546 50.658 114.335 50.4735 114.118 50.289C112.431 48.8195 111.238 47.1392 110.447 45.5577C109.663 43.9696 109.202 42.4935 109.011 41.2613C108.965 40.9516 108.886 40.6682 108.873 40.3915C108.853 40.1147 108.833 39.8577 108.813 39.6205C108.8 39.3833 108.774 39.1592 108.767 38.9615C108.774 38.7572 108.774 38.5793 108.78 38.4146C108.787 38.0917 108.8 37.8479 108.8 37.67C108.807 37.4986 108.82 37.413 108.82 37.413Z" fill="#1A2E35"/>
<path d="M124.397 25.3607C124.45 25.3607 124.496 25.9472 124.496 26.672C124.496 27.3969 124.45 27.9899 124.397 27.9899C124.345 27.9899 124.299 27.4034 124.299 26.672C124.292 25.9472 124.338 25.3607 124.397 25.3607Z" fill="#1A2E35"/>
<path d="M131.527 27.4693C131.567 27.5089 131.191 27.9504 130.684 28.4578C130.177 28.9652 129.735 29.3408 129.695 29.3012C129.656 29.2617 130.032 28.8202 130.539 28.3128C131.04 27.8054 131.488 27.4298 131.527 27.4693Z" fill="#1A2E35"/>
<path d="M135.692 32.0227C135.718 32.0754 135.224 32.372 134.611 32.741C134.005 33.11 133.511 33.4131 133.478 33.367C133.445 33.3209 133.893 32.9453 134.506 32.5697C135.125 32.1941 135.672 31.9766 135.692 32.0227Z" fill="#1A2E35"/>
<path d="M138.137 38.7836C138.137 38.8363 137.333 38.8825 136.344 38.8825C135.356 38.8825 134.552 38.8363 134.552 38.7836C134.552 38.7309 135.356 38.6848 136.344 38.6848C137.333 38.6848 138.137 38.7243 138.137 38.7836Z" fill="#1A2E35"/>
<path d="M113.281 38.5464C113.281 38.5991 112.523 38.6452 111.587 38.6452C110.652 38.6452 109.894 38.5991 109.894 38.5464C109.894 38.4937 110.652 38.4475 111.587 38.4475C112.523 38.4409 113.281 38.4871 113.281 38.5464Z" fill="#1A2E35"/>
<path d="M115.04 43.5742C115.08 43.6137 114.506 44.1343 113.762 44.734C113.017 45.3336 112.391 45.7817 112.358 45.7356C112.325 45.6895 112.899 45.1689 113.637 44.5758C114.375 43.9828 115.001 43.5347 115.04 43.5742Z" fill="#1A2E35"/>
<path d="M119.376 47.4686C119.422 47.5016 119.001 48.1539 118.506 48.9776C118.012 49.8013 117.637 50.4801 117.584 50.4537C117.538 50.4339 117.834 49.7025 118.335 48.8722C118.829 48.0419 119.33 47.4357 119.376 47.4686Z" fill="#1A2E35"/>
<path d="M124.398 52.4833C124.345 52.4833 124.299 51.6794 124.299 50.6909C124.299 49.7025 124.345 48.8986 124.398 48.8986C124.45 48.8986 124.496 49.7025 124.496 50.6909C124.496 51.6859 124.45 52.4833 124.398 52.4833Z" fill="#1A2E35"/>
<path d="M132.12 50.0979C132.094 50.144 131.389 49.742 130.644 49.0831C129.893 48.4307 129.399 47.7915 129.438 47.7586C129.485 47.719 130.038 48.2923 130.776 48.9315C131.514 49.5773 132.153 50.0517 132.12 50.0979Z" fill="#1A2E35"/>
<path d="M135.745 46.1903C135.705 46.2298 135.171 45.7619 134.559 45.1491C133.939 44.5297 133.478 44.0025 133.517 43.963C133.557 43.9235 134.091 44.3913 134.704 45.0041C135.316 45.6236 135.784 46.1507 135.745 46.1903Z" fill="#1A2E35"/>
<path d="M114.876 33.7228C114.836 33.7624 114.368 33.3604 113.828 32.8201C113.287 32.2797 112.886 31.8119 112.925 31.7723C112.965 31.7328 113.432 32.1347 113.973 32.6751C114.507 33.2154 114.915 33.6833 114.876 33.7228Z" fill="#1A2E35"/>
<path d="M119.35 29.0113C119.31 29.0508 118.849 28.6555 118.322 28.1283C117.795 27.6011 117.393 27.1399 117.432 27.1003C117.472 27.0608 117.933 27.4562 118.46 27.9833C118.994 28.5105 119.389 28.9718 119.35 29.0113Z" fill="#1A2E35"/>
<path d="M124.43 30.204C124.444 30.204 124.457 30.4017 124.47 30.7641C124.477 31.1661 124.49 31.6801 124.503 32.2929C124.523 33.5845 124.536 35.3636 124.536 37.3339C124.536 37.7161 124.536 38.0851 124.536 38.4409V38.6123L124.384 38.5332C122.862 37.7622 121.524 37.0703 120.569 36.5695C120.121 36.3323 119.745 36.128 119.449 35.9699C119.185 35.8249 119.047 35.7392 119.053 35.7261C119.06 35.7129 119.211 35.7788 119.482 35.8974C119.785 36.0424 120.174 36.2203 120.628 36.4377C121.597 36.9056 122.948 37.5711 124.477 38.3355L124.325 38.4278C124.325 38.0719 124.325 37.7029 124.325 37.3207C124.325 35.3504 124.338 33.5713 124.358 32.2797C124.371 31.6669 124.384 31.1529 124.391 30.7509C124.404 30.4017 124.417 30.204 124.43 30.204Z" fill="#1A2E35"/>
</g>
<defs>
<clipPath id="clip0_7659_62455">
<rect width="369.674" height="220.75" fill="white" transform="translate(0 0.0699921)"/>
</clipPath>
</defs>
</svg>
